<svg width="89" height="69" viewBox="0 0 89 69" fill="none" xmlns="http://www.w3.org/2000/svg">
<g filter="url(#filter0_d_5_121)">
<path d="M73 3H16C10.4772 3 6 7.47715 6 13V50C6 55.5228 10.4772 60 16 60H73C78.5229 60 83 55.5228 83 50V13C83 7.47715 78.5229 3 73 3Z" fill="white"/>
</g>
<path d="M48.5188 23.043C48.1904 23.0347 47.8704 22.9373 47.5932 22.7612C47.3159 22.585 47.0918 22.3368 46.9448 22.043L44.5008 17.481L42.0598 22.042C41.9125 22.3368 41.6879 22.586 41.41 22.7631C41.132 22.9401 40.8112 23.0382 40.4818 23.047C40.3098 23.0479 40.1389 23.0206 39.9758 22.966L34.7678 21.289V28.904C34.7571 29.1948 34.8409 29.4812 35.0068 29.7203C35.1727 29.9594 35.4116 30.1382 35.6878 30.23L43.9078 32.544C44.2935 32.6513 44.7011 32.6513 45.0868 32.544L53.3138 30.23C53.5893 30.1373 53.8276 29.9582 53.9933 29.7193C54.1591 29.4805 54.2434 29.1946 54.2338 28.904V21.289L49.0248 22.962C48.8617 23.0165 48.6908 23.0439 48.5188 23.043ZM56.6018 18.243L54.6438 13.843C54.5947 13.7184 54.5058 13.6136 54.391 13.5447C54.2762 13.4758 54.1418 13.4467 54.0088 13.462L44.5008 14.829L47.9868 21.336C48.0488 21.4615 48.1527 21.5613 48.2805 21.6183C48.4083 21.6753 48.552 21.6858 48.6868 21.648L56.2138 19.231C56.3059 19.1938 56.3894 19.1382 56.4593 19.0676C56.5292 18.997 56.584 18.9129 56.6203 18.8205C56.6566 18.728 56.6737 18.6291 56.6705 18.5298C56.6673 18.4305 56.6439 18.3329 56.6018 18.243ZM34.3568 13.845L32.3988 18.243C32.3561 18.3323 32.3322 18.4295 32.3286 18.5284C32.325 18.6273 32.3417 18.7259 32.3777 18.8182C32.4137 18.9104 32.4682 18.9942 32.5379 19.0646C32.6075 19.1349 32.6909 19.1902 32.7828 19.227L40.3068 21.644C40.4415 21.6818 40.5853 21.6713 40.7131 21.6143C40.8409 21.5573 40.9448 21.4575 41.0068 21.332L44.4968 14.832L34.9878 13.464C34.8554 13.4498 34.7221 13.4794 34.6081 13.5482C34.4941 13.617 34.4059 13.7213 34.3568 13.845Z" fill="black"/>
<path d="M25.0641 47.542V40.542H26.9241L28.8441 44.322L30.7641 40.542H32.6241V47.542H31.2541V42.392L28.8241 47.042L26.4041 42.372V47.542H25.0641ZM36.3424 47.642C35.8224 47.642 35.3491 47.522 34.9224 47.282C34.5024 47.042 34.1691 46.7187 33.9224 46.312C33.6758 45.9053 33.5524 45.4487 33.5524 44.942C33.5524 44.4353 33.6691 43.9787 33.9024 43.572C34.1424 43.1653 34.4658 42.842 34.8724 42.602C35.2791 42.362 35.7324 42.242 36.2324 42.242C36.7324 42.242 37.1758 42.3653 37.5624 42.612C37.9491 42.8587 38.2524 43.192 38.4724 43.612C38.6991 44.032 38.8124 44.5087 38.8124 45.042V45.402H34.9524C35.0124 45.6087 35.1091 45.7953 35.2424 45.962C35.3824 46.1287 35.5524 46.2587 35.7524 46.352C35.9591 46.4453 36.1791 46.492 36.4124 46.492C36.6458 46.492 36.8591 46.4553 37.0524 46.382C37.2524 46.3087 37.4224 46.2053 37.5624 46.072L38.4624 46.892C38.1424 47.152 37.8124 47.342 37.4724 47.462C37.1391 47.582 36.7624 47.642 36.3424 47.642ZM34.9324 44.422H37.4624C37.4158 44.2153 37.3291 44.0353 37.2024 43.882C37.0824 43.722 36.9358 43.5987 36.7624 43.512C36.5958 43.4187 36.4091 43.372 36.2024 43.372C35.9891 43.372 35.7958 43.4153 35.6224 43.502C35.4491 43.5887 35.3024 43.712 35.1824 43.872C35.0691 44.0253 34.9858 44.2087 34.9324 44.422ZM42.1009 47.612C41.6075 47.612 41.1609 47.492 40.7609 47.252C40.3609 47.012 40.0409 46.692 39.8009 46.292C39.5675 45.8853 39.4509 45.432 39.4509 44.932C39.4509 44.432 39.5675 43.982 39.8009 43.582C40.0409 43.1753 40.3642 42.8553 40.7709 42.622C41.1775 42.382 41.6342 42.262 42.1409 42.262C42.4009 42.262 42.6509 42.2987 42.8909 42.372C43.1309 42.4387 43.3542 42.5387 43.5609 42.672V40.542L44.9309 40.312V47.542H43.5809V47.112C43.1542 47.4453 42.6609 47.612 42.1009 47.612ZM42.3209 46.442C42.5742 46.442 42.8042 46.402 43.0109 46.322C43.2242 46.2353 43.4075 46.1087 43.5609 45.942V43.912C43.4075 43.7587 43.2242 43.6387 43.0109 43.552C42.7975 43.4653 42.5675 43.422 42.3209 43.422C42.0342 43.422 41.7742 43.4887 41.5409 43.622C41.3142 43.7487 41.1342 43.9287 41.0009 44.162C40.8675 44.3887 40.8009 44.6453 40.8009 44.932C40.8009 45.2187 40.8675 45.4753 41.0009 45.702C41.1342 45.9287 41.3142 46.1087 41.5409 46.242C41.7742 46.3753 42.0342 46.442 42.3209 46.442ZM45.9995 47.542V42.332H47.3695V47.542H45.9995ZM46.6795 41.712C46.4661 41.712 46.2828 41.6353 46.1295 41.482C45.9761 41.3287 45.8995 41.1453 45.8995 40.932C45.8995 40.712 45.9761 40.5287 46.1295 40.382C46.2828 40.2287 46.4661 40.152 46.6795 40.152C46.8995 40.152 47.0828 40.2287 47.2295 40.382C47.3828 40.5287 47.4595 40.712 47.4595 40.932C47.4595 41.1453 47.3828 41.3287 47.2295 41.482C47.0828 41.6353 46.8995 41.712 46.6795 41.712ZM50.4609 47.642C50.0609 47.642 49.7042 47.5553 49.3909 47.382C49.0842 47.202 48.8409 46.9553 48.6609 46.642C48.4875 46.3287 48.4009 45.9687 48.4009 45.562V42.332H49.7709V45.362C49.7709 45.6953 49.8675 45.962 50.0609 46.162C50.2609 46.362 50.5275 46.462 50.8609 46.462C51.0875 46.462 51.2909 46.4187 51.4709 46.332C51.6575 46.2387 51.8109 46.1087 51.9309 45.942V42.332H53.3009V47.542H51.9309V47.122C51.5309 47.4687 51.0409 47.642 50.4609 47.642ZM54.3686 47.542V42.332H55.7386V42.732C56.1119 42.3987 56.5653 42.232 57.0986 42.232C57.4386 42.232 57.7419 42.302 58.0086 42.442C58.2753 42.5753 58.4953 42.7653 58.6686 43.012C58.8819 42.7587 59.1319 42.5653 59.4186 42.432C59.7119 42.2987 60.0353 42.232 60.3886 42.232C60.7819 42.232 61.1253 42.322 61.4186 42.502C61.7186 42.6753 61.9519 42.9187 62.1186 43.232C62.2919 43.5387 62.3786 43.8987 62.3786 44.312V47.542H61.0186V44.512C61.0186 44.172 60.9286 43.9053 60.7486 43.712C60.5686 43.512 60.3286 43.412 60.0286 43.412C59.8219 43.412 59.6319 43.4553 59.4586 43.542C59.2919 43.6287 59.1486 43.7587 59.0286 43.932C59.0353 43.992 59.0419 44.052 59.0486 44.112C59.0553 44.172 59.0586 44.2387 59.0586 44.312V47.542H57.6886V44.512C57.6886 44.172 57.5986 43.9053 57.4186 43.712C57.2453 43.512 57.0086 43.412 56.7086 43.412C56.5019 43.412 56.3153 43.452 56.1486 43.532C55.9886 43.612 55.8519 43.732 55.7386 43.892V47.542H54.3686Z" fill="black"/>
<defs>
<filter id="filter0_d_5_121" x="0" y="0" width="89" height="69" filterUnits="userSpaceOnUse" color-interpolation-filters="sRGB">
<feFlood flood-opacity="0" result="BackgroundImageFix"/>
<feColorMatrix in="SourceAlpha" type="matrix" values="0 0 0 0 0 0 0 0 0 0 0 0 0 0 0 0 0 0 127 0" result="hardAlpha"/>
<feOffset dy="3"/>
<feGaussianBlur stdDeviation="3"/>
<feColorMatrix type="matrix" values="0 0 0 0 0 0 0 0 0 0 0 0 0 0 0 0 0 0 0.161 0"/>
<feBlend mode="normal" in2="BackgroundImageFix" result="effect1_dropShadow_5_121"/>
<feBlend mode="normal" in="SourceGraphic" in2="effect1_dropShadow_5_121" result="shape"/>
</filter>
</defs>
</svg>
