<svg width="89" height="69" viewBox="0 0 89 69" fill="none" xmlns="http://www.w3.org/2000/svg">
<g filter="url(#filter0_d_5_126)">
<path d="M73 3H16C10.4772 3 6 7.47715 6 13V50C6 55.5228 10.4772 60 16 60H73C78.5229 60 83 55.5228 83 50V13C83 7.47715 78.5229 3 73 3Z" fill="white"/>
</g>
<path d="M50.3089 24.085C49.8361 24.0743 49.3751 23.936 48.9745 23.6846C48.574 23.4332 48.249 23.0781 48.0339 22.657L44.5009 16.157L40.9739 22.657C40.7584 23.0793 40.4327 23.4356 40.0314 23.688C39.63 23.9405 39.1679 24.0797 38.6939 24.091C38.4455 24.0922 38.1987 24.053 37.9629 23.975L30.4359 21.584V32.444C30.4219 32.8609 30.5442 33.271 30.7842 33.6123C31.0241 33.9535 31.3688 34.2072 31.7659 34.335L43.6449 37.635C44.2014 37.7869 44.7884 37.7869 45.3449 37.635L57.2349 34.335C57.631 34.2056 57.9746 33.9515 58.2143 33.6107C58.4541 33.2698 58.5771 32.8605 58.5649 32.444V21.584L51.0399 23.969C50.8041 24.047 50.5572 24.0862 50.3089 24.085ZM61.9899 17.24L59.1609 10.969C59.0884 10.7905 58.9594 10.6407 58.7935 10.5426C58.6277 10.4445 58.4342 10.4035 58.2429 10.426L44.5009 12.369L49.5389 21.649C49.6292 21.8305 49.7805 21.9744 49.9662 22.0558C50.1519 22.1371 50.3602 22.1506 50.5549 22.094L61.4299 18.649C61.5622 18.5971 61.6825 18.5186 61.7833 18.4183C61.884 18.318 61.9631 18.1981 62.0156 18.066C62.0681 17.9339 62.0929 17.7924 62.0885 17.6503C62.0841 17.5082 62.0505 17.3686 61.9899 17.24ZM29.8419 10.969L27.0129 17.24C26.9519 17.3676 26.918 17.5063 26.9132 17.6476C26.9084 17.7889 26.9328 17.9297 26.9849 18.0611C27.037 18.1925 27.1157 18.3118 27.216 18.4114C27.3163 18.511 27.4361 18.5888 27.5679 18.64L38.4409 22.087C38.6355 22.1436 38.8439 22.1301 39.0296 22.0488C39.2153 21.9674 39.3665 21.8235 39.4569 21.642L44.5009 12.369L30.7539 10.425C30.5635 10.4041 30.3715 10.4458 30.2069 10.5437C30.0424 10.6417 29.9142 10.7907 29.8419 10.968V10.969Z" fill="black"/>
<path d="M30.86 50.583V43.583H32.31V49.303H36.14V50.583H30.86ZM38.7093 50.673C38.3359 50.673 38.0059 50.6063 37.7193 50.473C37.4326 50.333 37.2093 50.143 37.0493 49.903C36.8893 49.663 36.8093 49.3863 36.8093 49.073C36.8093 48.573 36.9959 48.1863 37.3693 47.913C37.7493 47.633 38.2693 47.493 38.9293 47.493C39.3826 47.493 39.8093 47.563 40.2093 47.703V47.323C40.2093 47.023 40.1159 46.7963 39.9293 46.643C39.7426 46.4897 39.4693 46.413 39.1093 46.413C38.8893 46.413 38.6526 46.4497 38.3993 46.523C38.1459 46.5897 37.8526 46.6963 37.5193 46.843L37.0193 45.833C37.4326 45.6463 37.8259 45.5063 38.1993 45.413C38.5793 45.3197 38.9593 45.273 39.3393 45.273C40.0393 45.273 40.5826 45.443 40.9693 45.783C41.3626 46.1163 41.5593 46.5897 41.5593 47.203V50.583H40.2093V50.213C39.9959 50.373 39.7659 50.4897 39.5193 50.563C39.2726 50.6363 39.0026 50.673 38.7093 50.673ZM38.1093 49.043C38.1093 49.243 38.1959 49.403 38.3693 49.523C38.5426 49.6363 38.7726 49.693 39.0593 49.693C39.2859 49.693 39.4959 49.6663 39.6893 49.613C39.8826 49.553 40.0559 49.4663 40.2093 49.353V48.593C40.0426 48.5263 39.8693 48.4763 39.6893 48.443C39.5093 48.4097 39.3159 48.393 39.1093 48.393C38.7959 48.393 38.5493 48.453 38.3693 48.573C38.1959 48.6863 38.1093 48.843 38.1093 49.043ZM42.5962 50.583V45.373H43.9662V45.953C44.1328 45.7263 44.3328 45.553 44.5662 45.433C44.7995 45.313 45.0628 45.253 45.3562 45.253C45.6095 45.2597 45.7995 45.2997 45.9262 45.373V46.573C45.8262 46.5263 45.7162 46.493 45.5962 46.473C45.4762 46.4463 45.3528 46.433 45.2262 46.433C44.9595 46.433 44.7162 46.4997 44.4962 46.633C44.2762 46.7663 44.0995 46.9563 43.9662 47.203V50.583H42.5962ZM49.0931 52.723C48.6931 52.723 48.3064 52.6797 47.9331 52.593C47.5598 52.513 47.2231 52.3963 46.9231 52.243L47.4031 51.183C47.6898 51.323 47.9698 51.4263 48.2431 51.493C48.5164 51.5597 48.7898 51.593 49.0631 51.593C49.4698 51.593 49.7764 51.5063 49.9831 51.333C50.1964 51.1597 50.3031 50.8997 50.3031 50.553V50.143C49.8764 50.4563 49.3998 50.613 48.8731 50.613C48.3798 50.613 47.9331 50.4963 47.5331 50.263C47.1398 50.023 46.8231 49.6997 46.5831 49.293C46.3498 48.8863 46.2331 48.4363 46.2331 47.943C46.2331 47.4497 46.3498 47.003 46.5831 46.603C46.8231 46.203 47.1464 45.8863 47.5531 45.653C47.9598 45.413 48.4131 45.293 48.9131 45.293C49.1664 45.293 49.4131 45.3297 49.6531 45.403C49.8931 45.4763 50.1164 45.5797 50.3231 45.713V45.373H51.6731V50.573C51.6731 51.2597 51.4498 51.7897 51.0031 52.163C50.5631 52.5363 49.9264 52.723 49.0931 52.723ZM49.0831 49.453C49.3364 49.453 49.5664 49.413 49.7731 49.333C49.9798 49.2463 50.1564 49.1263 50.3031 48.973V46.933C50.1564 46.7863 49.9764 46.673 49.7631 46.593C49.5564 46.5063 49.3331 46.463 49.0931 46.463C48.8064 46.463 48.5498 46.5297 48.3231 46.663C48.0964 46.7897 47.9164 46.9663 47.7831 47.193C47.6498 47.413 47.5831 47.663 47.5831 47.943C47.5831 48.2297 47.6464 48.4863 47.7731 48.713C47.9064 48.9397 48.0864 49.1197 48.3131 49.253C48.5464 49.3863 48.8031 49.453 49.0831 49.453ZM55.2926 50.683C54.7726 50.683 54.2993 50.563 53.8726 50.323C53.4526 50.083 53.1193 49.7597 52.8726 49.353C52.626 48.9463 52.5026 48.4897 52.5026 47.983C52.5026 47.4763 52.6193 47.0197 52.8526 46.613C53.0926 46.2063 53.416 45.883 53.8226 45.643C54.2293 45.403 54.6826 45.283 55.1826 45.283C55.6826 45.283 56.126 45.4063 56.5126 45.653C56.8993 45.8997 57.2026 46.233 57.4226 46.653C57.6493 47.073 57.7626 47.5497 57.7626 48.083V48.443H53.9026C53.9626 48.6497 54.0593 48.8363 54.1926 49.003C54.3326 49.1697 54.5026 49.2997 54.7026 49.393C54.9093 49.4863 55.1293 49.533 55.3626 49.533C55.596 49.533 55.8093 49.4963 56.0026 49.423C56.2026 49.3497 56.3726 49.2463 56.5126 49.113L57.4126 49.933C57.0926 50.193 56.7626 50.383 56.4226 50.503C56.0893 50.623 55.7126 50.683 55.2926 50.683ZM53.8826 47.463H56.4126C56.366 47.2563 56.2793 47.0763 56.1526 46.923C56.0326 46.763 55.886 46.6397 55.7126 46.553C55.546 46.4597 55.3593 46.413 55.1526 46.413C54.9393 46.413 54.746 46.4563 54.5726 46.543C54.3993 46.6297 54.2526 46.753 54.1326 46.913C54.0193 47.0663 53.936 47.2497 53.8826 47.463Z" fill="black"/>
<defs>
<filter id="filter0_d_5_126" x="0" y="0" width="89" height="69" filterUnits="userSpaceOnUse" color-interpolation-filters="sRGB">
<feFlood flood-opacity="0" result="BackgroundImageFix"/>
<feColorMatrix in="SourceAlpha" type="matrix" values="0 0 0 0 0 0 0 0 0 0 0 0 0 0 0 0 0 0 127 0" result="hardAlpha"/>
<feOffset dy="3"/>
<feGaussianBlur stdDeviation="3"/>
<feColorMatrix type="matrix" values="0 0 0 0 0 0 0 0 0 0 0 0 0 0 0 0 0 0 0.161 0"/>
<feBlend mode="normal" in2="BackgroundImageFix" result="effect1_dropShadow_5_126"/>
<feBlend mode="normal" in="SourceGraphic" in2="effect1_dropShadow_5_126" result="shape"/>
</filter>
</defs>
</svg>
