<svg width="221" height="174" viewBox="0 0 221 174" fill="none" xmlns="http://www.w3.org/2000/svg">
<g clip-path="url(#clip0_24_1328)">
<path d="M200.908 158.451C196.679 162.979 191.833 166.888 186.514 170.064C186.392 170.139 186.268 170.21 186.143 170.283L177.531 162.66C177.621 162.576 177.722 162.482 177.83 162.378C184.246 156.285 216.103 113.682 218.226 103.308C218.079 104.172 220.141 138.066 200.908 158.451Z" fill="#F0F0F0"/>
<path d="M188.175 171.535C188.013 171.574 187.847 171.61 187.681 171.644L181.22 165.925C181.346 165.881 181.493 165.829 181.662 165.771C184.434 164.789 192.691 161.826 200.908 158.451C209.736 154.823 218.523 150.723 220.413 148.097C220.007 148.707 207.521 167.209 188.175 171.535Z" fill="#F0F0F0"/>
<path d="M200.789 45.6952H199.869V20.4893C199.869 18.5735 199.491 16.6765 198.758 14.9065C198.025 13.1365 196.95 11.5283 195.596 10.1736C194.241 8.81897 192.633 7.74438 190.863 7.01124C189.093 6.2781 187.196 5.90076 185.28 5.90076H131.878C129.962 5.90075 128.065 6.27809 126.295 7.01123C124.525 7.74437 122.917 8.81895 121.562 10.1736C120.207 11.5283 119.133 13.1365 118.4 14.9065C117.667 16.6764 117.289 18.5734 117.289 20.4892V158.771C117.289 160.687 117.667 162.584 118.4 164.354C119.133 166.124 120.207 167.732 121.562 169.087C122.917 170.441 124.525 171.516 126.295 172.249C128.065 172.982 129.962 173.36 131.878 173.36H185.28C187.196 173.36 189.093 172.982 190.863 172.249C192.633 171.516 194.241 170.441 195.596 169.087C196.95 167.732 198.025 166.124 198.758 164.354C199.491 162.584 199.869 160.687 199.869 158.771V63.6373H200.789V45.6952Z" fill="#3F3D56"/>
<path d="M196.763 20.5894V158.67C196.763 160.101 196.481 161.517 195.934 162.839C195.386 164.161 194.583 165.362 193.572 166.373C192.56 167.385 191.358 168.187 190.037 168.734C188.715 169.281 187.298 169.563 185.867 169.562H132.208C130.777 169.562 129.361 169.281 128.039 168.733C126.718 168.186 125.517 167.384 124.505 166.372C123.494 165.361 122.692 164.16 122.144 162.838C121.597 161.517 121.315 160.1 121.315 158.67V20.5894C121.315 19.159 121.597 17.7426 122.144 16.421C122.692 15.0994 123.494 13.8986 124.505 12.8872C125.517 11.8757 126.718 11.0734 128.039 10.5261C129.361 9.9787 130.777 9.69704 132.208 9.69714H138.719C138.4 10.4831 138.278 11.3356 138.365 12.1796C138.452 13.0235 138.746 13.8332 139.219 14.5373C139.692 15.2414 140.332 15.8184 141.08 16.2176C141.829 16.6167 142.664 16.8257 143.513 16.8263H174.106C174.955 16.8271 175.791 16.6189 176.54 16.2202C177.29 15.8214 177.93 15.2443 178.403 14.5398C178.877 13.8353 179.17 13.025 179.256 12.1805C179.343 11.3359 179.22 10.4831 178.899 9.69714H185.867C187.298 9.69662 188.715 9.97798 190.037 10.5251C191.358 11.0723 192.56 11.8745 193.572 12.886C194.583 13.8975 195.386 15.0985 195.934 16.4202C196.481 17.742 196.763 19.1587 196.763 20.5894Z" fill="white"/>
<path d="M180.072 92.3435H132.907C132.081 92.3426 131.289 92.014 130.704 91.4298C130.12 90.8457 129.792 90.0537 129.791 89.2276V87.6766C129.792 86.8505 130.12 86.0585 130.704 85.4743C131.289 84.8902 132.081 84.5616 132.907 84.5607H180.072C180.898 84.5616 181.69 84.8902 182.274 85.4743C182.858 86.0585 183.187 86.8505 183.188 87.6766V89.2276C183.187 90.0537 182.858 90.8457 182.274 91.4298C181.69 92.014 180.898 92.3426 180.072 92.3435Z" fill="#F0F0F0"/>
<path d="M180.072 105.713H132.907C132.081 105.712 131.289 105.384 130.704 104.799C130.12 104.215 129.792 103.423 129.791 102.597V101.046C129.792 100.22 130.12 99.4281 130.704 98.844C131.289 98.2598 132.081 97.9312 132.907 97.9303H180.072C180.898 97.9312 181.69 98.2598 182.274 98.844C182.858 99.4281 183.187 100.22 183.188 101.046V102.597C183.187 103.423 182.858 104.215 182.274 104.799C181.69 105.384 180.898 105.712 180.072 105.713Z" fill="#F0F0F0"/>
<path d="M182.431 89.3535H135.266C134.399 89.3525 133.567 89.0075 132.954 88.3941C132.34 87.7808 131.995 86.9492 131.994 86.0817V84.5308C131.995 83.6634 132.34 82.8318 132.954 82.2184C133.567 81.605 134.399 81.26 135.266 81.259H182.431C183.298 81.26 184.13 81.605 184.743 82.2184C185.357 82.8318 185.702 83.6634 185.703 84.5308V86.0817C185.702 86.9492 185.357 87.7808 184.743 88.3941C184.13 89.0075 183.298 89.3525 182.431 89.3535ZM135.266 81.8822C134.564 81.883 133.891 82.1623 133.394 82.6588C132.897 83.1554 132.618 83.8286 132.617 84.5308V86.0817C132.618 86.7839 132.897 87.4571 133.394 87.9537C133.891 88.4502 134.564 88.7295 135.266 88.7303H182.431C183.133 88.7295 183.806 88.4502 184.303 87.9537C184.799 87.4571 185.079 86.7839 185.08 86.0817V84.5308C185.079 83.8286 184.799 83.1554 184.303 82.6588C183.806 82.1623 183.133 81.883 182.431 81.8822H135.266Z" fill="#3F3D56"/>
<path d="M182.431 102.723H135.266C134.399 102.722 133.567 102.377 132.954 101.764C132.34 101.15 131.995 100.319 131.994 99.4514V97.9004C131.995 97.033 132.34 96.2014 132.954 95.588C133.567 94.9747 134.399 94.6297 135.266 94.6287H182.431C183.298 94.6297 184.13 94.9747 184.743 95.588C185.357 96.2014 185.702 97.033 185.703 97.9004V99.4514C185.702 100.319 185.357 101.15 184.743 101.764C184.13 102.377 183.298 102.722 182.431 102.723ZM135.266 95.2518C134.564 95.2526 133.891 95.5319 133.394 96.0285C132.897 96.525 132.618 97.1982 132.617 97.9004V99.4514C132.618 100.154 132.897 100.827 133.394 101.323C133.891 101.82 134.564 102.099 135.266 102.1H182.431C183.133 102.099 183.806 101.82 184.303 101.323C184.799 100.827 185.079 100.154 185.08 99.4514V97.9004C185.079 97.1982 184.799 96.525 184.303 96.0285C183.806 95.5319 183.133 95.2526 182.431 95.2518H135.266Z" fill="#3F3D56"/>
<path d="M196.763 20.5894V50.6239C191.991 51.8794 186.994 52.0235 182.157 51.0449C177.32 50.0664 172.773 47.9914 168.864 44.9795C164.955 41.9676 161.789 38.0992 159.609 33.6717C157.43 29.2443 156.295 24.376 156.292 19.4412C156.292 18.5604 156.328 17.6888 156.399 16.8263H174.105C174.954 16.8271 175.791 16.6189 176.54 16.2202C177.29 15.8214 177.929 15.2443 178.403 14.5398C178.877 13.8353 179.17 13.025 179.256 12.1805C179.343 11.3359 179.22 10.4831 178.899 9.69714H185.867C187.298 9.69662 188.714 9.97798 190.036 10.5251C191.358 11.0723 192.56 11.8745 193.571 12.886C194.583 13.8975 195.386 15.0985 195.934 16.4202C196.481 17.742 196.763 19.1587 196.763 20.5894Z" fill="#F0F0F0"/>
<path d="M148.428 167.687C148.428 168.32 148.405 168.945 148.353 169.562H132.208C130.777 169.562 129.361 169.281 128.039 168.733C126.718 168.186 125.517 167.384 124.505 166.372C123.494 165.361 122.692 164.16 122.144 162.838C121.597 161.517 121.315 160.1 121.315 158.67V143.901C124.7 143.46 128.139 143.747 131.404 144.74C134.669 145.734 137.685 147.412 140.25 149.663C142.816 151.913 144.872 154.685 146.282 157.793C147.693 160.901 148.424 164.274 148.428 167.687H148.428Z" fill="#E4A90D"/>
<path d="M18.2068 141.772C18.6605 141.971 19.1748 141.983 19.6369 141.803C20.099 141.624 20.4712 141.269 20.6718 140.816L35.2168 107.851C35.5497 107.097 35.6515 106.261 35.5091 105.449C35.3668 104.636 34.9868 103.885 34.4172 103.288C33.8476 102.692 33.114 102.278 32.3092 102.099C31.5043 101.92 30.6644 101.983 29.8956 102.281H29.8956C29.0074 102.62 28.2641 103.257 27.7923 104.082C27.7172 104.213 27.6491 104.347 27.5884 104.485L13.0433 137.45C12.9442 137.675 12.8903 137.917 12.8847 138.162C12.8791 138.407 12.9219 138.652 13.0106 138.881C13.0994 139.109 13.2324 139.319 13.402 139.496C13.5716 139.674 13.7745 139.816 13.9991 139.915L18.2068 141.772Z" fill="#E4A90D"/>
<path d="M34.6198 121.385L20.2329 118.188L23.7938 108.767C24.4005 106.465 25.8122 104.456 27.773 103.106C29.7338 101.755 32.1137 101.152 34.4812 101.405L34.6198 101.421L34.6198 121.385Z" fill="#2F2E41"/>
<path d="M63.6789 142.243C63.2558 142.242 62.8419 142.119 62.4873 141.888C62.1328 141.657 61.8527 141.328 61.681 140.942L47.1361 107.977C46.6735 106.928 46.6305 105.742 47.0159 104.662C47.4013 103.583 48.1858 102.692 49.2081 102.173C50.2303 101.654 51.4125 101.547 52.5114 101.873C53.6103 102.2 54.5423 102.935 55.1158 103.927V103.927C55.1964 104.067 55.2695 104.212 55.3348 104.36L69.8797 137.324C70.1132 137.854 70.1269 138.454 69.9178 138.993C69.7087 139.533 69.2939 139.967 68.7647 140.2L64.4144 142.12L64.4121 142.115C64.177 142.2 63.9289 142.243 63.6789 142.243Z" fill="#E4A90D"/>
<path d="M43.5594 130.923C43.0637 130.924 42.5885 131.121 42.238 131.471C41.8875 131.822 41.6904 132.297 41.6898 132.793V171.123C41.6904 171.619 41.8875 172.094 42.238 172.445C42.5885 172.795 43.0637 172.992 43.5594 172.993H48.1584C48.654 172.992 49.1293 172.795 49.4797 172.445C49.8302 172.094 50.0274 171.619 50.0279 171.123V132.793C50.0274 132.297 49.8302 131.822 49.4797 131.471C49.1292 131.121 48.654 130.924 48.1584 130.923H43.5594Z" fill="#E4A90D"/>
<path d="M34.4632 130.923C33.9676 130.924 33.4923 131.121 33.1418 131.471C32.7914 131.822 32.5942 132.297 32.5937 132.793V171.123C32.5942 171.619 32.7914 172.094 33.1418 172.445C33.4923 172.795 33.9676 172.992 34.4632 172.993H39.0623C39.5579 172.992 40.0332 172.795 40.3836 172.445C40.7341 172.094 40.9313 171.619 40.9318 171.123V132.793C40.9313 132.297 40.7341 131.822 40.3836 131.471C40.0332 131.121 39.5579 130.924 39.0623 130.923H34.4632Z" fill="#E4A90D"/>
<path d="M41.1734 90.7653C49.95 90.7653 57.0647 83.6506 57.0647 74.8741C57.0647 66.0976 49.95 58.9828 41.1734 58.9828C32.3969 58.9828 25.2821 66.0976 25.2821 74.8741C25.2821 83.6506 32.3969 90.7653 41.1734 90.7653Z" fill="#E4A90D"/>
<path d="M46.4618 81.545C47.4919 81.5164 48.7739 81.4807 49.7616 80.7592C50.0557 80.5356 50.2973 80.2503 50.4696 79.9235C50.6418 79.5966 50.7405 79.236 50.7587 78.867C50.7766 78.6047 50.7335 78.3419 50.633 78.099C50.5324 77.8561 50.3771 77.6398 50.179 77.4669C49.6632 77.031 48.9099 76.9288 48.0981 77.1674L48.9392 71.021L48.3218 70.9364L47.333 78.1623L47.8486 77.9257C48.4464 77.6515 49.2669 77.512 49.7768 77.9429C49.902 78.0555 49.9995 78.1955 50.0618 78.352C50.1241 78.5085 50.1495 78.6772 50.1359 78.8451C50.1208 79.1197 50.0467 79.3879 49.9187 79.6314C49.7907 79.8748 49.6117 80.0878 49.394 80.2559C48.6254 80.8173 47.6035 80.8898 46.4445 80.9222L46.4618 81.545Z" fill="#2F2E41"/>
<path d="M55.3489 71.551H51.9925V72.1742H55.3489V71.551Z" fill="#2F2E41"/>
<path d="M44.7547 71.551H41.3983V72.1742H44.7547V71.551Z" fill="#2F2E41"/>
<path d="M56.9194 142.437L51.1997 100.683C51.1384 100.235 50.917 99.825 50.5764 99.5279C50.2359 99.2309 49.7993 99.0672 49.3474 99.0673H45.0301C45.0481 98.9643 45.0575 98.8601 45.0581 98.7557V97.1977C45.0581 96.7019 44.8611 96.2263 44.5105 95.8757C44.1599 95.5251 43.6844 95.3281 43.1885 95.3281H39.4494C38.9536 95.3281 38.478 95.5251 38.1274 95.8757C37.7768 96.2263 37.5798 96.7019 37.5798 97.1977V98.7557C37.5805 98.8601 37.5898 98.9643 37.6078 99.0673H33.2905C32.8387 99.0673 32.402 99.2309 32.0615 99.528C31.721 99.825 31.4995 100.235 31.4382 100.683L25.7185 142.437C25.6823 142.701 25.7031 142.97 25.7796 143.226C25.8561 143.482 25.9865 143.718 26.162 143.919C26.3374 144.121 26.554 144.282 26.797 144.392C27.04 144.503 27.3038 144.56 27.5708 144.56H55.0671C55.3341 144.56 55.5979 144.503 55.8409 144.392C56.0839 144.282 56.3005 144.121 56.476 143.919C56.6514 143.718 56.7818 143.482 56.8583 143.226C56.9348 142.97 56.9556 142.701 56.9194 142.437Z" fill="#2F2E41"/>
<path d="M48.0183 121.385V101.421L48.1569 101.405C50.5272 101.152 52.9099 101.757 54.8719 103.111C56.8339 104.465 58.2452 106.478 58.8494 108.784L62.4051 118.188L48.0183 121.385Z" fill="#2F2E41"/>
<path d="M40.3733 91.2613L29.3816 86.995C27.5843 86.2973 25.7769 85.6209 23.989 84.8993C23.2232 84.6324 22.5177 84.2166 21.9133 83.6759C21.3871 83.1188 21.0285 82.4248 20.8785 81.6733C20.4973 80.0619 20.5662 78.3002 20.5934 76.6559C20.6145 74.857 20.7625 73.0618 21.0364 71.2838C21.5164 67.9425 22.6436 64.727 24.3549 61.8174C27.4375 56.7598 32.7484 52.9546 38.8574 53.2583C41.6857 53.3989 44.5302 54.4137 46.6315 56.3474C46.8507 56.6094 47.0967 56.8477 47.3653 57.0586C47.5521 57.1286 47.7553 57.1423 47.9498 57.0978C48.2062 57.0813 48.4629 57.0688 48.7197 57.0601C49.6109 57.0225 50.5037 57.0599 51.3887 57.172C53.0014 57.3462 54.5298 57.9809 55.7916 59.0002C56.8417 59.9036 57.6962 61.1788 57.7841 62.596C57.8265 63.2466 57.719 63.8982 57.4697 64.5006C57.2204 65.103 56.8361 65.6401 56.3463 66.0704C55.035 67.1756 53.164 66.7872 51.591 66.7038L45.8284 66.3986L42.9087 66.2439C42.3075 66.212 42.3093 67.1469 42.9087 67.1787L50.6689 67.5898C51.916 67.6558 53.2013 67.8178 54.4493 67.743C55.4083 67.6996 56.324 67.3312 57.0459 66.6984C57.7052 66.0928 58.1963 65.3266 58.4714 64.4747C58.7464 63.6227 58.796 62.714 58.6153 61.8372C58.2152 59.9248 56.7919 58.3428 55.1234 57.4016C52.8531 56.121 50.1416 55.9983 47.6012 56.1876L47.9317 56.3245C45.0581 53.2403 40.6565 51.9381 36.5242 52.3938C32.1612 52.875 28.2806 55.3091 25.4925 58.6374C22.3839 62.3483 20.6899 66.9755 20.0313 71.7336C19.6886 74.3026 19.5758 76.897 19.6942 79.486C19.6893 80.6278 19.8847 81.7616 20.2713 82.836C20.7125 83.8816 21.5103 84.7368 22.5227 85.2496C23.6833 85.8099 24.8766 86.3001 26.096 86.7175L30.1455 88.2893L38.1 91.3768L40.1248 92.1627C40.6859 92.3805 40.929 91.477 40.3733 91.2613Z" fill="#2F2E41"/>
<path d="M23.0907 59.4949C22.1355 59.4949 21.2017 59.2116 20.4075 58.6809C19.6133 58.1502 18.9942 57.3959 18.6287 56.5134C18.2631 55.6309 18.1675 54.6598 18.3538 53.7229C18.5402 52.7861 19.0002 51.9255 19.6756 51.25C20.3511 50.5746 21.2116 50.1146 22.1485 49.9283C23.0854 49.7419 24.0565 49.8375 24.939 50.2031C25.8215 50.5686 26.5758 51.1877 27.1065 51.9819C27.6372 52.7762 27.9205 53.7099 27.9205 54.6652C27.919 55.9456 27.4097 57.1732 26.5043 58.0787C25.5988 58.9841 24.3712 59.4934 23.0907 59.4949ZM23.0907 50.7702C22.3204 50.7702 21.5674 50.9987 20.9268 51.4266C20.2863 51.8546 19.7871 52.4629 19.4923 53.1746C19.1975 53.8863 19.1204 54.6695 19.2707 55.425C19.4209 56.1806 19.7919 56.8746 20.3366 57.4193C20.8813 57.964 21.5753 58.335 22.3309 58.4852C23.0864 58.6355 23.8696 58.5584 24.5813 58.2636C25.293 57.9688 25.9013 57.4696 26.3293 56.8291C26.7572 56.1885 26.9857 55.4355 26.9857 54.6652C26.9845 53.6325 26.5738 52.6425 25.8436 51.9123C25.1134 51.1821 24.1234 50.7714 23.0907 50.7702Z" fill="#2F2E41"/>
<path d="M103.826 89.425L93.3724 81.4298L85.3771 91.8834L95.8308 99.8787L103.826 89.425Z" fill="#F0F0F0"/>
<path d="M44.7465 18.0529C46.3982 18.0516 48.0273 18.4371 49.5032 19.1785C50.9791 19.9199 52.261 20.9966 53.246 22.3224L59.3501 14.3413L41.0349 0.333374L27.0271 18.6485L34.9208 24.6859C35.7108 22.7268 37.0683 21.0485 38.8191 19.8666C40.57 18.6846 42.6341 18.0531 44.7465 18.0529Z" fill="#F0F0F0"/>
<path d="M166.702 121.835H144.31C143.484 121.834 142.692 121.506 142.108 120.922C141.524 120.337 141.195 119.545 141.194 118.719V117.168C141.195 116.342 141.524 115.55 142.108 114.966C142.692 114.382 143.484 114.053 144.31 114.052H166.702C167.528 114.053 168.32 114.382 168.904 114.966C169.489 115.55 169.817 116.342 169.818 117.168V118.719C169.817 119.545 169.489 120.337 168.904 120.922C168.32 121.506 167.528 121.834 166.702 121.835Z" fill="#E4A90D"/>
<path d="M169.061 118.845H146.67C145.802 118.844 144.971 118.499 144.357 117.886C143.744 117.273 143.399 116.441 143.398 115.574V114.023C143.399 113.155 143.744 112.324 144.357 111.71C144.971 111.097 145.802 110.752 146.67 110.751H169.061C169.929 110.752 170.76 111.097 171.374 111.71C171.987 112.324 172.332 113.155 172.333 114.023V115.574C172.332 116.441 171.987 117.273 171.374 117.886C170.76 118.499 169.929 118.844 169.061 118.845ZM146.67 111.374C145.967 111.375 145.294 111.654 144.798 112.151C144.301 112.647 144.022 113.32 144.021 114.023V115.574C144.022 116.276 144.301 116.949 144.798 117.445C145.294 117.942 145.967 118.221 146.67 118.222H169.061C169.764 118.221 170.437 117.942 170.933 117.445C171.43 116.949 171.709 116.276 171.71 115.574V114.023C171.709 113.32 171.43 112.647 170.933 112.151C170.437 111.654 169.764 111.375 169.061 111.374H146.67Z" fill="#3F3D56"/>
</g>
<defs>
<clipPath id="clip0_24_1328">
<rect width="220.609" height="173.205" fill="white" transform="translate(0.0965576 0.333374)"/>
</clipPath>
</defs>
</svg>
