<svg width="256" height="192" viewBox="0 0 256 192" fill="none" xmlns="http://www.w3.org/2000/svg">
<path fill-rule="evenodd" clip-rule="evenodd" d="M114.106 136.408V152.789H122.775C124.018 152.789 124.4 152.789 125.58 152.279C132.942 149.252 131.794 139.053 124.974 136.663C123.954 136.312 123.508 136.312 122.488 136.312L114.106 136.408ZM167.809 136.758H168.797L181.29 146.479V136.44H184.7V152.598L183.776 152.534L171.219 142.495V152.917H167.809V136.758ZM194.644 141.38V141.762V142.495H205.002V145.14H194.644V147.435V147.818C194.708 148.837 195.09 149.379 195.983 149.634C197.672 150.112 205.99 149.794 207.998 149.794V152.821H196.779C194.198 152.789 191.903 151.578 191.776 148.551V148.168V141.029V140.647C191.903 137.619 194.198 136.408 196.779 136.376H207.998V139.404C205.99 139.404 197.672 139.085 195.983 139.563C195.09 139.818 194.708 140.36 194.644 141.38ZM93.6449 136.631H96.6089V147.467C96.577 148.742 96.9595 149.443 97.9794 149.73C99.7004 150.208 105.214 149.921 107.286 149.921V153.012H98.808C96.1627 152.981 93.7724 151.738 93.6449 148.614V136.631ZM157.961 136.28H161.371V153.044H157.961V136.28ZM137.627 136.376H140.623V147.212C140.559 148.487 140.941 149.188 141.993 149.475C143.714 149.953 149.228 149.666 151.3 149.666V152.758H142.79C140.145 152.726 137.754 151.483 137.627 148.359V136.376ZM79.4305 136.248C84.0199 136.248 87.7488 139.977 87.7488 144.599C87.7488 149.22 84.0199 152.949 79.4305 152.949C74.8092 152.949 71.0803 149.22 71.0803 144.599C71.0803 139.977 74.8092 136.248 79.4305 136.248ZM79.4305 139.308C82.3307 139.308 84.6892 141.666 84.6892 144.599C84.6892 147.499 82.3307 149.889 79.4305 149.889C76.4983 149.889 74.1399 147.499 74.1399 144.599C74.1399 141.666 76.4983 139.308 79.4305 139.308ZM64.8336 136.216V139.053H61.3278L56.5471 139.021C55.8778 138.989 55.6229 138.989 54.9536 139.212C50.651 140.678 49.8542 147.18 54.3161 149.252C55.1767 149.634 55.4635 149.666 56.3559 149.666H61.774V146.575H56.3878V143.77H64.8336V143.802V146.575V152.598H56.1647C54.9217 152.598 54.5392 152.598 53.36 152.12C45.9978 149.06 47.1452 138.862 53.9656 136.471C54.9854 136.121 55.4316 136.121 56.4515 136.121L64.8336 136.216ZM117.166 139.244V149.825H122.584C123.476 149.825 123.763 149.825 124.592 149.443C129.085 147.371 128.289 140.87 123.954 139.404C123.317 139.18 123.03 139.18 122.393 139.18L117.166 139.244Z" fill="#E4A90D"/>
<path d="M48.8662 157.251H50.6829C51.2565 157.251 51.7027 157.347 52.0214 157.506C52.1808 157.602 52.3401 157.729 52.4676 157.889C52.6589 158.176 52.7545 158.462 52.7545 158.845C52.7545 159.291 52.627 159.642 52.4039 159.929C52.2127 160.183 51.9258 160.343 51.6071 160.407C51.3521 160.47 51.0334 160.502 50.651 160.502H49.7267V162.446H48.8662V157.251ZM49.7267 157.921V159.833H50.5235C50.9697 159.833 51.2884 159.769 51.4796 159.674C51.7346 159.514 51.8302 159.227 51.8302 158.845C51.8302 158.239 51.4478 157.921 50.6191 157.921H49.7267ZM58.6187 157.124C59.1287 157.124 59.5749 157.251 59.9892 157.538C60.4354 157.793 60.7222 158.207 60.9453 158.686C61.0728 159.036 61.1365 159.419 61.1365 159.833C61.1365 160.534 60.9453 161.108 60.5947 161.586C60.3398 161.936 60.021 162.191 59.6386 162.351C59.3199 162.478 58.9693 162.574 58.5869 162.574C57.7582 162.574 57.1208 162.255 56.6427 161.65C56.2603 161.171 56.069 160.566 56.069 159.833C56.069 159.355 56.1328 158.941 56.324 158.558C56.6109 157.889 57.1208 157.443 57.822 157.251C58.045 157.156 58.3319 157.124 58.6187 157.124ZM58.5869 157.793C58.2363 157.793 57.8857 157.921 57.6307 158.176C57.1845 158.526 56.9614 159.1 56.9614 159.833C56.9614 160.279 57.057 160.662 57.1845 160.98C57.312 161.203 57.4714 161.395 57.6626 161.554C57.9494 161.745 58.2363 161.873 58.5869 161.873C59.0968 161.873 59.5111 161.65 59.798 161.267C60.0848 160.885 60.2123 160.407 60.2123 159.833C60.2123 159.227 60.0848 158.749 59.798 158.399C59.4792 158.016 59.0649 157.793 58.5869 157.793ZM70.5066 157.251L69.168 162.51H68.435L67.5426 159.865C67.447 159.578 67.3832 159.227 67.3195 158.813C67.2558 159.259 67.1601 159.61 67.0964 159.865L66.2359 162.51H65.471L64.1324 157.251H64.9929L65.6303 160.088C65.726 160.47 65.8216 160.885 65.8853 161.395H65.9172C65.9809 161.012 66.0765 160.598 66.2359 160.088L66.937 157.666H67.702L68.4031 160.088C68.5625 160.598 68.6581 161.044 68.7218 161.395H68.7537C68.8174 160.885 68.913 160.47 69.0087 160.088L69.6461 157.251H70.5066ZM73.8212 157.251H77.327V157.953H74.618V159.419H77.0083V160.12H74.618V161.713H77.4226V162.446H73.8212V157.251ZM80.9921 157.251H82.8407C83.3825 157.251 83.7968 157.347 84.1155 157.538C84.5617 157.793 84.7848 158.176 84.7848 158.686C84.7848 159.1 84.5936 159.45 84.2749 159.674C84.0518 159.833 83.7649 159.929 83.3825 159.992V160.024C83.7012 160.12 83.988 160.343 84.2111 160.725C84.4661 161.108 84.7529 161.681 85.1354 162.446H84.1474C83.7649 161.522 83.4462 160.948 83.2231 160.693C83 160.407 82.6813 160.279 82.267 160.279H81.8208V162.446H80.9921V157.251ZM81.8208 157.921V159.642H82.5857C82.9681 159.642 83.255 159.578 83.4781 159.45C83.7649 159.259 83.8924 159.036 83.8924 158.717C83.8924 158.176 83.4781 157.921 82.6494 157.921H81.8208ZM88.5774 157.251H92.0832V157.953H89.3742V159.419H91.7645V160.12H89.3742V161.713H92.1789V162.446H88.5774V157.251ZM95.7484 157.251H97.4376C98.1706 157.251 98.7761 157.411 99.2223 157.698C99.6048 157.953 99.8598 158.271 100.051 158.686C100.21 159.036 100.274 159.419 100.274 159.833C100.274 160.566 100.051 161.14 99.6685 161.618C99.3498 161.968 98.9674 162.191 98.4893 162.319C98.1706 162.414 97.82 162.446 97.4057 162.446H95.7484V157.251ZM96.577 157.953V161.713H97.2782C97.8838 161.713 98.3618 161.618 98.6805 161.395C99.1586 161.076 99.3817 160.566 99.3817 159.833C99.3817 159.068 99.1267 158.526 98.5849 158.207C98.2981 158.048 97.8519 157.953 97.3101 157.953H96.577ZM107.445 157.251H109.134C109.644 157.251 110.058 157.315 110.345 157.443C110.887 157.666 111.174 158.016 111.174 158.558C111.174 158.877 111.046 159.164 110.855 159.355C110.632 159.578 110.377 159.674 110.027 159.737V159.769C110.409 159.833 110.696 159.929 110.919 160.12C111.206 160.343 111.365 160.63 111.365 161.012C111.365 161.49 111.142 161.873 110.728 162.128C110.377 162.351 109.931 162.446 109.357 162.446H107.445V157.251ZM108.274 157.889V159.419H109.007C109.835 159.419 110.282 159.164 110.282 158.654C110.282 158.367 110.122 158.176 109.867 158.048C109.676 157.953 109.389 157.889 109.039 157.889H108.274ZM108.274 160.056V161.777H109.166C109.549 161.777 109.804 161.745 110.027 161.618C110.313 161.458 110.441 161.235 110.441 160.948C110.441 160.598 110.25 160.343 109.867 160.215C109.644 160.12 109.357 160.056 109.007 160.056H108.274ZM114.457 157.251H115.508L116.815 159.387L118.154 157.251H119.174L117.229 160.056V162.446H116.401V160.056L114.457 157.251ZM127.97 157.219H128.799L130.838 162.446H129.946L129.404 161.012H127.396L126.854 162.446H125.962L127.97 157.219ZM129.181 160.343L128.703 159.036C128.544 158.654 128.448 158.335 128.416 158.048H128.384C128.321 158.335 128.225 158.654 128.097 159.036L127.619 160.343H129.181ZM134.185 157.251H136.001C136.543 157.251 136.989 157.347 137.308 157.538C137.754 157.793 137.946 158.176 137.946 158.686C137.946 159.1 137.786 159.45 137.436 159.674C137.213 159.833 136.926 159.929 136.575 159.992V160.024C136.862 160.12 137.149 160.343 137.404 160.725C137.627 161.108 137.946 161.681 138.328 162.446H137.308C136.926 161.522 136.639 160.948 136.416 160.693C136.161 160.407 135.842 160.279 135.428 160.279H135.013V162.446H134.185V157.251ZM135.013 157.921V159.642H135.778C136.129 159.642 136.448 159.578 136.671 159.45C136.926 159.259 137.085 159.036 137.085 158.717C137.085 158.176 136.671 157.921 135.842 157.921H135.013ZM141.738 157.251H145.276V157.953H142.567V159.419H144.957V160.12H142.567V161.713H145.34V162.446H141.738V157.251ZM150.439 157.219H151.268L153.307 162.446H152.415L151.873 161.012H149.833L149.324 162.446H148.431L150.439 157.219ZM151.65 160.343L151.172 159.036C151.013 158.654 150.917 158.335 150.885 158.048H150.853C150.79 158.335 150.694 158.654 150.566 159.036L150.057 160.343H151.65ZM160.956 161.873C160.446 162.319 159.777 162.574 158.98 162.574C158.184 162.574 157.546 162.287 157.036 161.713C156.622 161.267 156.431 160.63 156.431 159.865C156.431 159.132 156.622 158.526 157.036 158.016C157.514 157.443 158.152 157.124 158.917 157.124C159.395 157.124 159.777 157.219 160.128 157.379C160.383 157.506 160.606 157.666 160.861 157.921L160.383 158.494C160 158.048 159.522 157.825 158.98 157.825C158.47 157.825 158.088 158.016 157.769 158.399C157.482 158.781 157.323 159.259 157.323 159.865C157.323 160.375 157.451 160.821 157.674 161.14C157.992 161.618 158.439 161.841 159.012 161.841C159.618 161.841 160.128 161.618 160.542 161.171L160.956 161.873ZM166.789 157.124C167.299 157.124 167.777 157.251 168.191 157.538C168.605 157.793 168.924 158.207 169.115 158.686C169.243 159.036 169.307 159.419 169.307 159.833C169.307 160.534 169.115 161.108 168.765 161.586C168.51 161.936 168.191 162.191 167.809 162.351C167.49 162.478 167.139 162.574 166.789 162.574C165.96 162.574 165.291 162.255 164.813 161.65C164.43 161.171 164.239 160.566 164.239 159.833C164.239 159.355 164.335 158.941 164.494 158.558C164.781 157.889 165.291 157.443 165.992 157.251C166.247 157.156 166.502 157.124 166.789 157.124ZM166.757 157.793C166.406 157.793 166.088 157.921 165.801 158.176C165.355 158.526 165.132 159.1 165.132 159.833C165.132 160.279 165.227 160.662 165.386 160.98C165.514 161.203 165.641 161.395 165.865 161.554C166.12 161.745 166.438 161.873 166.789 161.873C167.267 161.873 167.681 161.65 168 161.267C168.255 160.885 168.414 160.407 168.414 159.833C168.414 159.227 168.255 158.749 167.968 158.399C167.649 158.016 167.267 157.793 166.757 157.793ZM172.844 157.251H173.96L175.776 160.088C175.936 160.407 176.159 160.789 176.35 161.267H176.382C176.35 160.693 176.318 160.12 176.318 159.546V157.251H177.147V162.446H176.318L174.215 159.132C173.96 158.781 173.769 158.399 173.609 158.016H173.577C173.641 158.622 173.673 159.227 173.673 159.865V162.446H172.844V157.251ZM180.939 157.251H182.023L183.84 160.088C184.031 160.407 184.222 160.789 184.445 161.267H184.477C184.413 160.693 184.413 160.12 184.413 159.546V157.251H185.21V162.446H184.413L182.278 159.132C182.055 158.781 181.864 158.399 181.704 158.016H181.673C181.704 158.622 181.736 159.227 181.736 159.865V162.446H180.939V157.251ZM189.035 157.251H192.572V157.953H189.863V159.419H192.254V160.12H189.863V161.713H192.668V162.446H189.035V157.251ZM200.572 161.873C200.03 162.319 199.361 162.574 198.596 162.574C197.767 162.574 197.13 162.287 196.652 161.713C196.238 161.267 196.014 160.63 196.014 159.865C196.014 159.132 196.206 158.526 196.62 158.016C197.098 157.443 197.736 157.124 198.532 157.124C198.978 157.124 199.393 157.219 199.743 157.379C199.966 157.506 200.221 157.666 200.476 157.921L199.966 158.494C199.616 158.048 199.138 157.825 198.564 157.825C198.086 157.825 197.672 158.016 197.385 158.399C197.066 158.781 196.907 159.259 196.907 159.865C196.907 160.375 197.034 160.821 197.289 161.14C197.608 161.618 198.022 161.841 198.596 161.841C199.202 161.841 199.712 161.618 200.126 161.171L200.572 161.873ZM203.6 157.251H207.998V157.984H206.213V162.446H205.385V157.984H203.6V157.251Z" fill="white"/>
<path fill-rule="evenodd" clip-rule="evenodd" d="M128.161 70.4348C134.121 70.4348 139.507 67.1521 141.164 60.1086C141.26 59.6943 141.26 59.3119 141.133 58.9932C140.909 58.3239 139.953 57.7183 139.73 58.9613C139.73 59.025 139.698 59.1206 139.698 59.1844C139.666 59.4394 139.666 59.6943 139.539 60.2361C138.424 65.3992 134.153 68.4907 128.99 69.0006C123.38 69.5106 117.58 64.0288 117.58 58.5151C117.58 51.4397 122.169 46.8185 128.512 46.691C128.926 46.691 129.277 46.691 129.563 46.6272C130.583 46.4997 130.998 45.4799 129.627 45.3524C127.524 45.193 125.898 45.3843 124.145 46.0217C117.389 48.412 114.457 55.7104 116.783 62.2121C118.377 66.6103 123.508 70.4348 128.161 70.4348ZM83.7329 116.711C84.9759 116.711 85.9958 117.699 85.9958 118.942C85.9958 120.185 84.9759 121.205 83.7329 121.205C82.49 121.205 81.4701 120.185 81.4701 118.942C81.4701 117.699 82.49 116.711 83.7329 116.711ZM173.418 116.584C174.661 116.584 175.681 117.572 175.681 118.815C175.681 120.058 174.661 121.078 173.418 121.078C172.175 121.078 171.187 120.058 171.187 118.815C171.187 117.572 172.175 116.584 173.418 116.584ZM146.104 87.4539C147.347 87.4539 148.367 88.4738 148.367 89.7168C148.367 90.9597 147.347 91.9796 146.104 91.9796C144.861 91.9796 143.842 90.9597 143.842 89.7168C143.842 88.4738 144.861 87.4539 146.104 87.4539ZM109.931 88.0595C111.174 88.0595 112.162 89.0475 112.162 90.2904C112.162 91.5334 111.174 92.5533 109.931 92.5533C108.688 92.5533 107.668 91.5334 107.668 90.2904C107.668 89.0475 108.688 88.0595 109.931 88.0595ZM128.448 28.652C129.659 28.652 130.679 29.6719 130.679 30.9148C130.679 32.1578 129.659 33.1777 128.448 33.1777C127.205 33.1777 126.185 32.1578 126.185 30.9148C126.185 29.6719 127.205 28.652 128.448 28.652ZM137.404 51.5672C138.551 50.643 152.765 38.2133 155.889 34.9625C157.514 33.2733 155.793 32.1578 153.881 33.592C151.268 35.568 136.543 48.4757 135.236 50.5155C134.44 51.7266 135.523 53.0652 137.404 51.5672Z" fill="#E4A90D"/>
<path fill-rule="evenodd" clip-rule="evenodd" d="M111.652 97.1427C111.652 99.8836 113.309 100.744 113.851 103.071C108.433 103.071 102.505 104.186 97.6925 104.983C95.3659 105.365 92.6887 106.003 90.3622 106.672C88.4499 107.246 84.5616 108.138 84.5616 110.21C84.5616 111.293 85.6771 112.409 86.7289 112.409C87.4938 112.409 91.6689 110.784 93.1668 110.401C98.1387 109.158 110.823 107.118 116.018 107.118C116.496 109.158 118.919 112.919 119.97 114.99C121.373 117.859 122.679 120.313 124.114 122.99C117.102 122.99 110.218 122.385 103.557 121.46C100.529 121.046 94.8241 119.006 94.8241 122.385C94.8241 123.946 95.4934 124.392 96.8638 124.711C109.102 127.516 135.97 128.121 148.495 126.496C151.682 126.113 156.048 125.858 159.012 125.189C162.072 124.488 161.084 120.95 158.725 120.887L147.73 122.321C142.439 122.863 137.34 122.99 131.603 122.99C132.272 121.715 133.069 120.409 133.707 119.197L140.017 107.118C145.371 107.118 150.535 107.756 155.443 108.489L166.056 110.656C168.159 111.262 171.474 112.696 171.474 109.286C171.474 107.692 170.581 107.437 169.338 107.055C162.518 104.919 157.769 104.537 150.726 103.549L142.503 102.752C142.949 100.84 144.352 99.8199 144.352 97.7801C144.352 96.2185 141.706 93.1907 139.284 98.9275L127.556 120.504L116.337 98.067C115.381 96.1547 115.636 95.581 113.214 95.581C112.481 95.581 111.652 96.4097 111.652 97.1427ZM150.694 45.8305C155.347 58.6745 153.977 65.2399 149.642 75.2792C148.654 77.5102 148.112 79.4543 148.112 80.9523C148.112 81.7172 148.814 82.514 149.961 82.514C153.913 81.5578 163.028 62.7858 155.634 46.0217C155.22 45.0337 154.965 44.0457 154.359 43.1214C152.797 44.4281 150.821 45.7986 150.694 45.8305ZM135.332 31.7116C135.332 32.6996 135.555 33.2733 136.161 33.5601C138.264 34.5163 140.527 35.0262 142.503 36.3967C143.555 35.2493 144.607 34.2613 146.009 33.4327C144.734 32.5721 135.906 26.8672 135.332 31.7116ZM120.703 57.5909C120.703 68.2995 136.671 69.0644 136.671 57.4634C136.671 47.5834 121.181 47.0097 120.703 57.5909ZM122.233 57.9096C122.233 49.5912 135.013 48.7626 135.013 58.1964C135.013 66.1641 122.233 66.1323 122.233 57.9096ZM124.878 77.574C130.52 78.2432 136.575 76.8728 141.77 72.4427C147.316 67.7577 150.375 54.4994 145.18 55.9017C143.395 56.3798 143.682 58.2601 143.236 60.9373C142.312 66.6741 137.659 71.5503 132.049 73.0164C122.456 75.5023 111.556 68.0127 112.895 56.0292C113.405 51.4398 116.05 47.9021 119.046 45.6711C120.831 44.3007 122.042 43.727 124.56 43.0896C127.046 42.4521 130.36 43.217 130.36 40.4443C130.36 38.532 127.906 37.8627 124.687 38.4683C115.508 40.1893 108.529 47.9658 108.433 57.814C108.306 68.3632 115.572 76.4903 124.878 77.574ZM105.756 82.1952C110.25 82.1952 107.477 77.8927 106.489 74.9287C101.198 60.4592 99.9553 46.8185 114.361 36.301C118.632 33.7832 120.99 33.8789 120.99 31.7435C120.99 26.0705 110.919 33.2733 109.102 34.7712C103.174 39.6475 98.5211 47.0734 97.9793 54.7543C97.4375 62.8177 100.019 71.0723 103.429 79.1994C103.844 80.3149 104.481 82.1952 105.756 82.1952Z" fill="#FEFEFE"/>
</svg>
