<svg width="68" height="69" viewBox="0 0 68 69" fill="none" xmlns="http://www.w3.org/2000/svg">
<g filter="url(#filter0_d_5_131)">
<path d="M52 3H16C10.4772 3 6 7.47715 6 13V50C6 55.5228 10.4772 60 16 60H52C57.5228 60 62 55.5228 62 50V13C62 7.47715 57.5228 3 52 3Z" fill="white"/>
</g>
<path d="M28.1129 31.501C27.8817 31.499 27.655 31.4365 27.4555 31.3196C27.256 31.2028 27.0907 31.0357 26.9759 30.835L25.2089 27.802L23.4449 30.835C23.3299 31.0364 23.1641 31.2041 22.9641 31.3215C22.7641 31.4389 22.5368 31.5018 22.3049 31.504C22.1812 31.5045 22.0581 31.4863 21.9399 31.45L18.1759 30.335V35.401C18.1729 35.601 18.2367 35.7963 18.3571 35.956C18.4776 36.1157 18.6478 36.2308 18.8409 36.283L24.7799 37.823C25.0594 37.8942 25.3523 37.8942 25.6319 37.823L31.5769 36.283C31.7693 36.2297 31.9389 36.1144 32.0591 35.9549C32.1793 35.7954 32.2436 35.6007 32.2419 35.401V30.335L28.4779 31.447C28.3596 31.4833 28.2365 31.5015 28.1129 31.501ZM33.9529 28.308L32.5389 25.378C32.499 25.2927 32.433 25.2222 32.3505 25.1767C32.2681 25.1313 32.1733 25.1132 32.0799 25.125L25.2089 26.033L27.7279 30.362C27.7771 30.4485 27.8539 30.5159 27.946 30.5536C28.038 30.5913 28.1401 30.5971 28.2359 30.57L33.6729 28.962C33.7373 28.9412 33.7965 28.9068 33.8465 28.8611C33.8965 28.8155 33.9361 28.7596 33.9626 28.6973C33.9892 28.635 34.002 28.5678 34.0004 28.5001C33.9987 28.4324 33.9825 28.3659 33.9529 28.305V28.308ZM17.8799 25.378L16.4649 28.308C16.4349 28.3685 16.4183 28.4347 16.4162 28.5022C16.4142 28.5697 16.4268 28.6369 16.4531 28.699C16.4794 28.7612 16.5188 28.817 16.5686 28.8626C16.6185 28.9081 16.6776 28.9424 16.7419 28.963L22.1789 30.571C22.2746 30.5981 22.3767 30.5923 22.4687 30.5546C22.5608 30.5169 22.6376 30.4495 22.6869 30.363L25.2089 26.037L18.3359 25.129C18.2434 25.1176 18.1496 25.1356 18.0679 25.1802C17.9861 25.2249 17.9203 25.294 17.8799 25.378Z" fill="black"/>
<path d="M41.0947 21.126C40.9527 21.1241 40.8137 21.0843 40.6921 21.0108C40.5704 20.9374 40.4706 20.8328 40.4027 20.708L39.3307 18.808L38.2607 20.708C38.1932 20.8332 38.0934 20.9382 37.9718 21.012C37.8501 21.0858 37.711 21.1259 37.5687 21.128C37.4934 21.1284 37.4185 21.1169 37.3467 21.094L35.0637 20.394V23.572C35.0606 23.6954 35.098 23.8164 35.1703 23.9165C35.2425 24.0165 35.3456 24.0901 35.4637 24.126L39.0637 25.092C39.2332 25.1367 39.4113 25.1367 39.5807 25.092L43.1867 24.126C43.3046 24.0897 43.4074 24.016 43.4796 23.916C43.5517 23.8161 43.5894 23.6953 43.5867 23.572V20.394L41.3037 21.094C41.236 21.1149 41.1656 21.1257 41.0947 21.126ZM44.6377 19.126L43.7797 17.287C43.7567 17.2343 43.7174 17.1904 43.6675 17.1617C43.6176 17.1331 43.5599 17.1213 43.5027 17.128L39.3347 17.698L40.8617 20.413C40.8905 20.4666 40.9367 20.5088 40.9928 20.5324C41.0488 20.5561 41.1113 20.5598 41.1697 20.543L44.4697 19.534C44.5093 19.5199 44.5455 19.4976 44.5759 19.4687C44.6064 19.4397 44.6304 19.4047 44.6464 19.3658C44.6624 19.327 44.6701 19.2852 44.669 19.2432C44.6678 19.2012 44.6579 19.1599 44.6397 19.122L44.6377 19.126ZM34.8867 17.287L34.0287 19.122C34.0107 19.1597 34.0008 19.2008 33.9996 19.2426C33.9984 19.2844 34.006 19.326 34.0218 19.3647C34.0376 19.4034 34.0614 19.4383 34.0915 19.4673C34.1216 19.4963 34.1575 19.5187 34.1967 19.533L37.4967 20.542C37.5552 20.5588 37.6177 20.5551 37.6737 20.5314C37.7298 20.5078 37.776 20.4656 37.8047 20.412L39.3347 17.698L35.1647 17.128C35.1076 17.1214 35.0499 17.1333 35.0001 17.1619C34.9502 17.1906 34.9109 17.2344 34.8877 17.287H34.8867Z" fill="black"/>
<path d="M51.949 12.318H49.428V9.77301C49.4283 9.69907 49.414 9.62581 49.3859 9.5574C49.3579 9.489 49.3166 9.42678 49.2645 9.37432C49.2124 9.32185 49.1505 9.28016 49.0823 9.25163C49.0141 9.22309 48.9409 9.20827 48.867 9.20801H48.307C48.1579 9.2088 48.0151 9.26874 47.9101 9.37467C47.8051 9.4806 47.7465 9.62386 47.747 9.77301V12.318H45.227C45.1531 12.3184 45.0799 12.3334 45.0118 12.362C44.9436 12.3907 44.8818 12.4325 44.8298 12.485C44.7778 12.5376 44.7366 12.5999 44.7087 12.6683C44.6808 12.7368 44.6666 12.8101 44.667 12.884V13.449C44.6665 13.5982 44.7251 13.7414 44.8301 13.8473C44.9351 13.9533 45.0779 14.0132 45.227 14.014H47.748V16.558C47.7475 16.7072 47.8061 16.8504 47.9111 16.9563C48.0161 17.0623 48.1589 17.1222 48.308 17.123H48.867C49.0161 17.1222 49.1589 17.0623 49.2639 16.9563C49.3689 16.8504 49.4275 16.7072 49.427 16.558V14.015H51.949C52.0981 14.0142 52.2409 13.9543 52.3459 13.8483C52.4509 13.7424 52.5095 13.5992 52.509 13.45V12.884C52.5094 12.8101 52.4952 12.7368 52.4673 12.6683C52.4394 12.5999 52.3982 12.5376 52.3462 12.485C52.2942 12.4325 52.2324 12.3907 52.1642 12.362C52.0961 12.3334 52.0229 12.3184 51.949 12.318Z" fill="black"/>
<path d="M18.1739 52.583V46.983H19.6619L21.1979 50.007L22.7339 46.983H24.2219V52.583H23.1259V48.463L21.1819 52.183L19.2459 48.447V52.583H18.1739ZM26.7726 52.663C26.4526 52.663 26.1673 52.5937 25.9166 52.455C25.6713 52.311 25.4766 52.1137 25.3326 51.863C25.1939 51.6123 25.1246 51.3243 25.1246 50.999V48.415H26.2206V50.839C26.2206 51.1057 26.2979 51.319 26.4526 51.479C26.6126 51.639 26.8259 51.719 27.0926 51.719C27.2739 51.719 27.4366 51.6843 27.5806 51.615C27.7299 51.5403 27.8526 51.4363 27.9486 51.303V48.415H29.0446V52.583H27.9486V52.247C27.6286 52.5243 27.2366 52.663 26.7726 52.663ZM29.8988 52.583V46.983L30.9948 46.799V52.583H29.8988ZM33.8279 52.647C33.3639 52.647 33.0119 52.543 32.7719 52.335C32.5373 52.1217 32.4199 51.8123 32.4199 51.407V49.327H31.5639V48.415H32.4199V47.351L33.5159 47.103V48.415H34.7079V49.327H33.5159V51.183C33.5159 51.375 33.5586 51.5137 33.6439 51.599C33.7293 51.679 33.8786 51.719 34.0919 51.719C34.1986 51.719 34.2946 51.7137 34.3799 51.703C34.4706 51.687 34.5693 51.6603 34.6759 51.623V52.527C34.5639 52.5643 34.4226 52.5937 34.2519 52.615C34.0866 52.6363 33.9453 52.647 33.8279 52.647ZM35.2425 52.583V48.415H36.3385V52.583H35.2425ZM35.7865 47.919C35.6159 47.919 35.4692 47.8577 35.3465 47.735C35.2239 47.6123 35.1625 47.4657 35.1625 47.295C35.1625 47.119 35.2239 46.9723 35.3465 46.855C35.4692 46.7323 35.6159 46.671 35.7865 46.671C35.9625 46.671 36.1092 46.7323 36.2265 46.855C36.3492 46.9723 36.4105 47.119 36.4105 47.295C36.4105 47.4657 36.3492 47.6123 36.2265 47.735C36.1092 47.8577 35.9625 47.919 35.7865 47.919ZM37.1957 54.215V48.415H38.2757V48.759C38.617 48.4923 39.0117 48.359 39.4597 48.359C39.8543 48.359 40.2117 48.455 40.5317 48.647C40.8517 48.839 41.105 49.0977 41.2917 49.423C41.4837 49.743 41.5797 50.103 41.5797 50.503C41.5797 50.903 41.4837 51.2657 41.2917 51.591C41.0997 51.911 40.841 52.167 40.5157 52.359C40.1903 52.5457 39.8277 52.639 39.4277 52.639C39.2197 52.639 39.0197 52.6123 38.8277 52.559C38.6357 52.5003 38.457 52.4177 38.2917 52.311V54.215H37.1957ZM39.2837 51.711C39.513 51.711 39.7183 51.6577 39.8997 51.551C40.0863 51.4443 40.233 51.3003 40.3397 51.119C40.4463 50.9377 40.4997 50.7323 40.4997 50.503C40.4997 50.2737 40.4463 50.0683 40.3397 49.887C40.233 49.7003 40.0863 49.5563 39.8997 49.455C39.7183 49.3483 39.513 49.295 39.2837 49.295C39.081 49.295 38.8943 49.3297 38.7237 49.399C38.5583 49.463 38.4143 49.5617 38.2917 49.695V51.319C38.409 51.4417 38.553 51.5377 38.7237 51.607C38.8997 51.6763 39.0863 51.711 39.2837 51.711ZM42.2425 52.583V46.983L43.3385 46.799V52.583H42.2425ZM46.2357 52.663C45.8197 52.663 45.441 52.567 45.0997 52.375C44.7637 52.183 44.497 51.9243 44.2997 51.599C44.1023 51.2737 44.0037 50.9083 44.0037 50.503C44.0037 50.0977 44.097 49.7323 44.2837 49.407C44.4757 49.0817 44.7343 48.823 45.0597 48.631C45.385 48.439 45.7477 48.343 46.1477 48.343C46.5477 48.343 46.9023 48.4417 47.2117 48.639C47.521 48.8363 47.7637 49.103 47.9397 49.439C48.121 49.775 48.2117 50.1563 48.2117 50.583V50.871H45.1237C45.1717 51.0363 45.249 51.1857 45.3557 51.319C45.4677 51.4523 45.6037 51.5563 45.7637 51.631C45.929 51.7057 46.105 51.743 46.2917 51.743C46.4783 51.743 46.649 51.7137 46.8037 51.655C46.9637 51.5963 47.0997 51.5137 47.2117 51.407L47.9317 52.063C47.6757 52.271 47.4117 52.423 47.1397 52.519C46.873 52.615 46.5717 52.663 46.2357 52.663ZM45.1077 50.087H47.1317C47.0943 49.9217 47.025 49.7777 46.9237 49.655C46.8277 49.527 46.7103 49.4283 46.5717 49.359C46.4383 49.2843 46.289 49.247 46.1237 49.247C45.953 49.247 45.7983 49.2817 45.6597 49.351C45.521 49.4203 45.4037 49.519 45.3077 49.647C45.217 49.7697 45.1503 49.9163 45.1077 50.087Z" fill="black"/>
<defs>
<filter id="filter0_d_5_131" x="0" y="0" width="68" height="69" filterUnits="userSpaceOnUse" color-interpolation-filters="sRGB">
<feFlood flood-opacity="0" result="BackgroundImageFix"/>
<feColorMatrix in="SourceAlpha" type="matrix" values="0 0 0 0 0 0 0 0 0 0 0 0 0 0 0 0 0 0 127 0" result="hardAlpha"/>
<feOffset dy="3"/>
<feGaussianBlur stdDeviation="3"/>
<feColorMatrix type="matrix" values="0 0 0 0 0 0 0 0 0 0 0 0 0 0 0 0 0 0 0.161 0"/>
<feBlend mode="normal" in2="BackgroundImageFix" result="effect1_dropShadow_5_131"/>
<feBlend mode="normal" in="SourceGraphic" in2="effect1_dropShadow_5_131" result="shape"/>
</filter>
</defs>
</svg>
