<svg width="176" height="177" viewBox="0 0 176 177" fill="none" xmlns="http://www.w3.org/2000/svg">
<g clip-path="url(#clip0_24_1510)">
<path d="M17.1125 149.042L15.5661 142.943C12.8242 141.781 10.019 140.775 7.1638 139.929L6.96861 142.763L6.17701 139.641C2.63603 138.628 0.227051 138.183 0.227051 138.183C0.227051 138.183 3.48019 150.556 10.3057 160.016L18.258 161.413L12.0801 162.304C12.9386 163.337 13.8613 164.315 14.8426 165.232C24.7706 174.447 35.8288 178.675 39.5413 174.675C43.2539 170.675 38.2153 159.963 28.2873 150.748C25.2096 147.892 21.3433 145.599 17.473 143.794L17.1125 149.042Z" fill="#F2F2F2"/>
<path d="M31.8193 142.418L33.6481 136.398C31.9017 133.986 30.0207 131.674 28.014 129.474L26.3818 131.8L27.3181 128.717C24.8097 126.021 22.9778 124.395 22.9778 124.395C22.9778 124.395 19.3675 136.669 20.3199 148.294L26.4054 153.601L20.6553 151.17C20.8565 152.498 21.141 153.812 21.5072 155.105C25.2427 168.125 32.5234 177.461 37.769 175.956C43.0146 174.451 44.239 162.676 40.5035 149.655C39.3456 145.619 37.2207 141.658 34.8404 138.113L31.8193 142.418Z" fill="#F2F2F2"/>
<path d="M122.751 42.4063H121.786V15.9809C121.786 13.9724 121.391 11.9835 120.622 10.1278C119.853 8.27217 118.727 6.58607 117.306 5.16581C115.886 3.74554 114.2 2.61893 112.344 1.85029C110.489 1.08165 108.5 0.686035 106.491 0.686035H50.5022C46.4456 0.686035 42.5552 2.29746 39.6868 5.16581C36.8184 8.03416 35.207 11.9245 35.207 15.9809V160.955C35.207 162.964 35.6026 164.953 36.3712 166.808C37.1399 168.664 38.2665 170.35 39.6868 171.77C41.1071 173.191 42.7933 174.317 44.649 175.086C46.5047 175.854 48.4936 176.25 50.5022 176.25H106.491C110.548 176.25 114.438 174.639 117.306 171.77C120.175 168.902 121.786 165.012 121.786 160.955V61.2164H122.751L122.751 42.4063Z" fill="#E6E6E6"/>
<path d="M107.108 4.6637H99.8004C100.137 5.48771 100.265 6.38174 100.174 7.26702C100.083 8.1523 99.776 9.00165 99.2795 9.74024C98.7831 10.4788 98.1126 11.084 97.3272 11.5024C96.5417 11.9208 95.6655 12.1397 94.7755 12.1397H62.7002C61.8103 12.1396 60.934 11.9207 60.1487 11.5023C59.3633 11.0838 58.6929 10.4786 58.1965 9.74005C57.7001 9.00147 57.393 8.15215 57.3021 7.26691C57.2113 6.38167 57.3396 5.48768 57.6757 4.6637H50.8498C47.8204 4.6637 44.9151 5.86709 42.773 8.00915C40.6309 10.1512 39.4274 13.0565 39.4274 16.0858V160.85C39.4274 163.879 40.6309 166.784 42.773 168.926C44.9151 171.068 47.8204 172.272 50.8498 172.272H107.108C110.138 172.272 113.043 171.068 115.185 168.926C117.327 166.784 118.531 163.879 118.531 160.85V16.0855C118.531 13.0563 117.327 10.1511 115.185 8.00906C113.043 5.86706 110.138 4.6637 107.108 4.6637Z" fill="white"/>
<path d="M71.81 62.3302C71.8098 61.3184 72.0762 60.3243 72.5823 59.448C73.0884 58.5718 73.8164 57.8444 74.693 57.3389C73.8168 56.8329 72.8229 56.5664 71.8111 56.5663C70.7992 56.5662 69.8052 56.8324 68.9289 57.3382C68.0526 57.8441 67.3249 58.5717 66.819 59.4479C66.313 60.3241 66.0467 61.3181 66.0467 62.3299C66.0467 63.3417 66.313 64.3357 66.819 65.2119C67.3249 66.0881 68.0526 66.8157 68.9289 67.3215C69.8052 67.8274 70.7992 68.0936 71.8111 68.0935C72.8229 68.0934 73.8168 67.8269 74.693 67.3209C73.8165 66.8155 73.0885 66.0882 72.5824 65.2121C72.0763 64.336 71.8099 63.342 71.81 62.3302Z" fill="#CCCCCC"/>
<path d="M79.0559 62.3302C79.0557 61.3184 79.3221 60.3243 79.8282 59.448C80.3343 58.5718 81.0623 57.8443 81.9389 57.3389C81.0628 56.8329 80.0688 56.5664 79.057 56.5663C78.0452 56.5662 77.0511 56.8324 76.1749 57.3382C75.2986 57.8441 74.5708 58.5717 74.0649 59.4479C73.559 60.3241 73.2926 61.3181 73.2926 62.3299C73.2926 63.3417 73.559 64.3357 74.0649 65.2119C74.5708 66.0881 75.2986 66.8157 76.1749 67.3215C77.0511 67.8274 78.0452 68.0936 79.057 68.0935C80.0688 68.0934 81.0628 67.8269 81.9389 67.3209C81.0624 66.8155 80.3344 66.0882 79.8283 65.2121C79.3222 64.336 79.0558 63.342 79.0559 62.3302Z" fill="#CCCCCC"/>
<path d="M86.1371 68.0936C89.3204 68.0936 91.9009 65.5132 91.9009 62.33C91.9009 59.1469 89.3204 56.5664 86.1371 56.5664C82.9539 56.5664 80.3734 59.1469 80.3734 62.33C80.3734 65.5132 82.9539 68.0936 86.1371 68.0936Z" fill="#E4A90D"/>
<path d="M95.7698 80.3321H62.1775C61.8577 80.3317 61.5511 80.2045 61.325 79.9783C61.0988 79.7522 60.9716 79.4456 60.9713 79.1258V45.5342C60.9716 45.2144 61.0988 44.9078 61.325 44.6817C61.5511 44.4556 61.8577 44.3284 62.1775 44.328H95.7698C96.0896 44.3284 96.3962 44.4556 96.6223 44.6817C96.8485 44.9078 96.9757 45.2144 96.9761 45.5342V79.1258C96.9757 79.4456 96.8485 79.7522 96.6223 79.9783C96.3962 80.2045 96.0896 80.3317 95.7698 80.3321ZM62.1775 44.8108C61.9856 44.811 61.8017 44.8873 61.666 45.023C61.5303 45.1586 61.454 45.3426 61.4538 45.5345V79.1261C61.454 79.3179 61.5303 79.5019 61.666 79.6376C61.8017 79.7733 61.9856 79.8496 62.1775 79.8498H95.7698C95.9617 79.8496 96.1457 79.7733 96.2813 79.6376C96.417 79.5019 96.4933 79.3179 96.4935 79.1261V45.5345C96.4933 45.3426 96.417 45.1586 96.2813 45.023C96.1457 44.8873 95.9617 44.811 95.7698 44.8108H62.1775Z" fill="#CCCCCC"/>
<path d="M103.27 106.082H51.7498V106.564H103.27V106.082Z" fill="#CCCCCC"/>
<path d="M53.3769 103.069C54.2755 103.069 55.0039 102.341 55.0039 101.442C55.0039 100.543 54.2755 99.8149 53.3769 99.8149C52.4783 99.8149 51.7498 100.543 51.7498 101.442C51.7498 102.341 52.4783 103.069 53.3769 103.069Z" fill="#E4A90D"/>
<path d="M103.27 122.351H51.7498V122.833H103.27V122.351Z" fill="#CCCCCC"/>
<path d="M53.3769 119.338C54.2755 119.338 55.0039 118.61 55.0039 117.711C55.0039 116.813 54.2755 116.084 53.3769 116.084C52.4783 116.084 51.7498 116.813 51.7498 117.711C51.7498 118.61 52.4783 119.338 53.3769 119.338Z" fill="#E4A90D"/>
<path d="M102.327 140.877H86.0456C85.7644 140.877 85.4947 140.765 85.2958 140.566C85.097 140.367 84.9851 140.098 84.9848 139.817V134.11C84.9851 133.829 85.097 133.559 85.2958 133.36C85.4947 133.161 85.7644 133.05 86.0456 133.049H102.327C102.609 133.05 102.878 133.161 103.077 133.36C103.276 133.559 103.388 133.829 103.388 134.11V139.817C103.388 140.098 103.276 140.367 103.077 140.566C102.878 140.765 102.609 140.877 102.327 140.877Z" fill="#E4A90D"/>
<path d="M58.6842 103.069C59.5828 103.069 60.3113 102.341 60.3113 101.442C60.3113 100.543 59.5828 99.8149 58.6842 99.8149C57.7856 99.8149 57.0572 100.543 57.0572 101.442C57.0572 102.341 57.7856 103.069 58.6842 103.069Z" fill="#E4A90D"/>
<path d="M63.9917 103.069C64.8903 103.069 65.6187 102.341 65.6187 101.442C65.6187 100.543 64.8903 99.8149 63.9917 99.8149C63.0931 99.8149 62.3646 100.543 62.3646 101.442C62.3646 102.341 63.0931 103.069 63.9917 103.069Z" fill="#E4A90D"/>
<path d="M58.6842 119.338C59.5828 119.338 60.3113 118.61 60.3113 117.711C60.3113 116.813 59.5828 116.084 58.6842 116.084C57.7856 116.084 57.0572 116.813 57.0572 117.711C57.0572 118.61 57.7856 119.338 58.6842 119.338Z" fill="#E4A90D"/>
<path d="M63.9917 119.338C64.8903 119.338 65.6187 118.61 65.6187 117.711C65.6187 116.813 64.8903 116.084 63.9917 116.084C63.0931 116.084 62.3646 116.813 62.3646 117.711C62.3646 118.61 63.0931 119.338 63.9917 119.338Z" fill="#E4A90D"/>
<path d="M133.341 116.067C133.457 116.12 133.568 116.182 133.674 116.253L144.247 111.74L144.625 108.955L148.849 108.929L148.6 115.317L134.644 119.007C134.615 119.104 134.58 119.2 134.539 119.292C134.337 119.723 134.013 120.084 133.606 120.331C133.2 120.577 132.729 120.699 132.254 120.679C131.779 120.659 131.321 120.5 130.936 120.22C130.551 119.941 130.258 119.554 130.092 119.108C129.927 118.662 129.897 118.178 130.006 117.715C130.115 117.252 130.358 116.832 130.705 116.507C131.053 116.182 131.488 115.967 131.957 115.889C132.426 115.81 132.908 115.872 133.341 116.067Z" fill="#FFB8B8"/>
<path d="M150.386 173.953H147.496L146.121 162.806L150.386 162.806L150.386 173.953Z" fill="#FFB8B8"/>
<path d="M145.431 173.127H151.005V176.636H141.922C141.922 175.706 142.292 174.813 142.95 174.155C143.608 173.497 144.501 173.127 145.431 173.127Z" fill="#2F2E41"/>
<path d="M161.626 173.136L158.749 173.42L156.288 162.461L160.533 162.043L161.626 173.136Z" fill="#FFB8B8"/>
<path d="M156.614 172.8L162.161 172.254L162.505 175.746L153.466 176.637C153.421 176.178 153.466 175.715 153.6 175.274C153.734 174.833 153.953 174.423 154.246 174.066C154.538 173.71 154.898 173.415 155.304 173.198C155.71 172.98 156.156 172.845 156.614 172.8Z" fill="#2F2E41"/>
<path d="M151.19 97.1316C154.388 97.1316 156.98 94.5394 156.98 91.3418C156.98 88.1442 154.388 85.552 151.19 85.552C147.993 85.552 145.4 88.1442 145.4 91.3418C145.4 94.5394 147.993 97.1316 151.19 97.1316Z" fill="#FFB8B8"/>
<path d="M146.85 171.698C146.602 171.699 146.361 171.612 146.171 171.453C145.98 171.293 145.852 171.072 145.809 170.827C144.313 162.523 139.424 135.372 139.307 134.62C139.304 134.602 139.303 134.585 139.303 134.568V132.543C139.303 132.469 139.326 132.397 139.369 132.338L140.015 131.433C140.045 131.389 140.086 131.353 140.132 131.328C140.179 131.302 140.231 131.288 140.284 131.285C143.967 131.113 156.028 130.607 156.61 131.335C157.196 132.066 156.989 134.283 156.941 134.72L156.944 134.765L162.362 169.417C162.405 169.693 162.337 169.975 162.173 170.202C162.009 170.428 161.762 170.581 161.487 170.627L158.102 171.185C157.85 171.225 157.592 171.174 157.375 171.04C157.157 170.906 156.995 170.699 156.918 170.456C155.871 167.111 152.361 155.86 151.145 151.506C151.137 151.478 151.12 151.455 151.096 151.439C151.072 151.423 151.043 151.417 151.015 151.421C150.986 151.425 150.96 151.439 150.942 151.461C150.923 151.482 150.913 151.51 150.913 151.539C150.974 155.689 151.121 166.277 151.172 169.934L151.177 170.328C151.179 170.595 151.082 170.853 150.903 171.051C150.724 171.249 150.478 171.373 150.212 171.398L146.949 171.694C146.916 171.697 146.883 171.698 146.85 171.698Z" fill="#2F2E41"/>
<path d="M147.516 99.4081C146.505 100.009 145.901 101.113 145.554 102.236C144.911 104.315 144.525 106.465 144.402 108.638L144.036 115.144L139.497 132.393C143.431 135.721 145.7 134.965 150.996 132.242C156.292 129.519 156.897 133.15 156.897 133.15L157.956 118.474L159.469 102.436C159.129 102.027 158.745 101.658 158.323 101.335C156.924 100.247 155.297 99.4912 153.564 99.1239C151.831 98.7566 150.037 98.7874 148.318 99.2141L147.516 99.4081Z" fill="#E4A90D"/>
<path d="M146.041 119.551C146.164 119.596 146.282 119.652 146.395 119.716L156.85 114.484L157.023 111.649L161.336 111.352L161.567 117.814L147.596 122.434C147.482 122.923 147.221 123.366 146.849 123.704C146.477 124.042 146.011 124.258 145.513 124.325C145.015 124.391 144.509 124.304 144.061 124.076C143.614 123.848 143.247 123.488 143.008 123.046C142.77 122.604 142.672 122.1 142.727 121.6C142.782 121.101 142.988 120.63 143.317 120.251C143.647 119.871 144.084 119.601 144.57 119.476C145.057 119.351 145.57 119.377 146.041 119.551Z" fill="#FFB8B8"/>
<path d="M159.393 102.51C161.965 103.418 162.419 113.253 162.419 113.253C159.392 111.589 155.761 114.312 155.761 114.312C155.761 114.312 155.004 111.74 154.097 108.411C153.823 107.475 153.79 106.485 154.001 105.532C154.213 104.58 154.662 103.696 155.307 102.964C155.307 102.964 156.821 101.601 159.393 102.51Z" fill="#E4A90D"/>
<path d="M156.382 92.8729C155.66 92.2958 154.676 93.3448 154.676 93.3448L154.099 88.1508C154.099 88.1508 150.492 88.5829 148.184 88.0067C145.875 87.4304 145.514 90.0988 145.514 90.0988C145.395 89.0209 145.371 87.9347 145.442 86.8526C145.587 85.5541 147.462 84.2556 150.781 83.3898C154.099 82.5241 155.83 86.2754 155.83 86.2754C158.139 87.4295 157.103 93.4501 156.382 92.8729Z" fill="#2F2E41"/>
</g>
<defs>
<clipPath id="clip0_24_1510">
<rect width="175.587" height="176.109" fill="white" transform="translate(0.227112 0.686035)"/>
</clipPath>
</defs>
</svg>
