<svg width="89" height="69" viewBox="0 0 89 69" fill="none" xmlns="http://www.w3.org/2000/svg">
<g filter="url(#filter0_d_5_116)">
<path d="M73 3H16C10.4772 3 6 7.47715 6 13V50C6 55.5228 10.4772 60 16 60H73C78.5229 60 83 55.5228 83 50V13C83 7.47715 78.5229 3 73 3Z" fill="white"/>
</g>
<path d="M47.6389 28.501C47.3859 28.4969 47.1386 28.4253 46.9226 28.2936C46.7065 28.1619 46.5295 27.975 46.4099 27.752L44.5019 24.342L42.5949 27.752C42.475 27.9756 42.2976 28.1632 42.0811 28.2954C41.8645 28.4276 41.6166 28.4996 41.3629 28.504C41.2288 28.5046 41.0955 28.484 40.9679 28.443L36.9019 27.186V32.886C36.8963 33.1072 36.9635 33.3241 37.0932 33.5034C37.2229 33.6826 37.408 33.8143 37.6199 33.878L44.0389 35.609C44.3404 35.6887 44.6574 35.6887 44.9589 35.609L51.3819 33.876C51.5933 33.8118 51.778 33.6804 51.9079 33.5018C52.0379 33.3231 52.106 33.1069 52.1019 32.886V27.186L48.0329 28.44C47.9056 28.4809 47.7726 28.5015 47.6389 28.501ZM53.9509 24.911L52.4209 21.623C52.3798 21.5276 52.3088 21.4482 52.2186 21.3968C52.1284 21.3454 52.0239 21.3247 51.9209 21.338L44.5019 22.358L47.2239 27.224C47.2746 27.3201 47.3569 27.3959 47.4568 27.4385C47.5568 27.4811 47.6684 27.488 47.7729 27.458L53.6479 25.65C53.7184 25.6241 53.7827 25.5837 53.8366 25.5315C53.8906 25.4793 53.9331 25.4164 53.9613 25.3468C53.9896 25.2773 54.003 25.2026 54.0007 25.1275C53.9983 25.0524 53.9804 24.9787 53.9479 24.911H53.9509ZM36.5799 21.623L35.0509 24.911C35.018 24.9784 34.9997 25.052 34.9971 25.127C34.9946 25.202 35.0079 25.2766 35.0363 25.3461C35.0646 25.4156 35.1072 25.4783 35.1615 25.5301C35.2157 25.582 35.2802 25.6218 35.3509 25.647L41.2259 27.455C41.3304 27.485 41.442 27.4781 41.542 27.4355C41.642 27.3929 41.7242 27.3171 41.7749 27.221L44.5019 22.358L37.0729 21.338C36.971 21.3263 36.8681 21.3478 36.7793 21.3991C36.6906 21.4504 36.6206 21.5289 36.5799 21.623Z" fill="black"/>
<path d="M34.224 50.1C33.6573 50.1 33.104 49.9967 32.564 49.79C32.024 49.5767 31.544 49.2767 31.124 48.89L31.954 47.85C32.3607 48.21 32.7507 48.47 33.124 48.63C33.504 48.79 33.904 48.87 34.324 48.87C34.6173 48.87 34.8707 48.8367 35.084 48.77C35.2973 48.6967 35.4607 48.5933 35.574 48.46C35.694 48.3267 35.754 48.17 35.754 47.99C35.754 47.75 35.6673 47.5667 35.494 47.44C35.3207 47.3067 35.024 47.2033 34.604 47.13L33.214 46.89C32.6207 46.79 32.1673 46.58 31.854 46.26C31.5473 45.94 31.394 45.5267 31.394 45.02C31.394 44.5867 31.504 44.21 31.724 43.89C31.9507 43.57 32.2673 43.3267 32.674 43.16C33.0873 42.9867 33.5773 42.9 34.144 42.9C34.6573 42.9 35.1673 42.9867 35.674 43.16C36.1873 43.3333 36.6407 43.5733 37.034 43.88L36.254 44.96C35.5207 44.4 34.784 44.12 34.044 44.12C33.784 44.12 33.5573 44.1533 33.364 44.22C33.1707 44.2867 33.0207 44.38 32.914 44.5C32.814 44.6133 32.764 44.75 32.764 44.91C32.764 45.1233 32.8407 45.29 32.994 45.41C33.1473 45.5233 33.404 45.61 33.764 45.67L35.084 45.89C35.784 46.0033 36.3073 46.2267 36.654 46.56C37.0007 46.8867 37.174 47.32 37.174 47.86C37.174 48.3133 37.054 48.71 36.814 49.05C36.574 49.3833 36.2307 49.6433 35.784 49.83C35.344 50.01 34.824 50.1 34.224 50.1ZM37.9426 50V44.79H39.3126V45.19C39.6859 44.8567 40.1393 44.69 40.6726 44.69C41.0126 44.69 41.3159 44.76 41.5826 44.9C41.8493 45.0333 42.0693 45.2233 42.2426 45.47C42.4559 45.2167 42.7059 45.0233 42.9926 44.89C43.2859 44.7567 43.6093 44.69 43.9626 44.69C44.3559 44.69 44.6993 44.78 44.9926 44.96C45.2926 45.1333 45.5259 45.3767 45.6926 45.69C45.8659 45.9967 45.9526 46.3567 45.9526 46.77V50H44.5926V46.97C44.5926 46.63 44.5026 46.3633 44.3226 46.17C44.1426 45.97 43.9026 45.87 43.6026 45.87C43.3959 45.87 43.2059 45.9133 43.0326 46C42.8659 46.0867 42.7226 46.2167 42.6026 46.39C42.6093 46.45 42.6159 46.51 42.6226 46.57C42.6293 46.63 42.6326 46.6967 42.6326 46.77V50H41.2626V46.97C41.2626 46.63 41.1726 46.3633 40.9926 46.17C40.8193 45.97 40.5826 45.87 40.2826 45.87C40.0759 45.87 39.8893 45.91 39.7226 45.99C39.5626 46.07 39.4259 46.19 39.3126 46.35V50H37.9426ZM48.6553 50.09C48.282 50.09 47.952 50.0233 47.6653 49.89C47.3787 49.75 47.1553 49.56 46.9953 49.32C46.8353 49.08 46.7553 48.8033 46.7553 48.49C46.7553 47.99 46.942 47.6033 47.3153 47.33C47.6953 47.05 48.2153 46.91 48.8753 46.91C49.3287 46.91 49.7553 46.98 50.1553 47.12V46.74C50.1553 46.44 50.062 46.2133 49.8753 46.06C49.6887 45.9067 49.4153 45.83 49.0553 45.83C48.8353 45.83 48.5987 45.8667 48.3453 45.94C48.092 46.0067 47.7987 46.1133 47.4653 46.26L46.9653 45.25C47.3787 45.0633 47.772 44.9233 48.1453 44.83C48.5253 44.7367 48.9053 44.69 49.2853 44.69C49.9853 44.69 50.5287 44.86 50.9153 45.2C51.3087 45.5333 51.5053 46.0067 51.5053 46.62V50H50.1553V49.63C49.942 49.79 49.712 49.9067 49.4653 49.98C49.2187 50.0533 48.9487 50.09 48.6553 50.09ZM48.0553 48.46C48.0553 48.66 48.142 48.82 48.3153 48.94C48.4887 49.0533 48.7187 49.11 49.0053 49.11C49.232 49.11 49.442 49.0833 49.6353 49.03C49.8287 48.97 50.002 48.8833 50.1553 48.77V48.01C49.9887 47.9433 49.8153 47.8933 49.6353 47.86C49.4553 47.8267 49.262 47.81 49.0553 47.81C48.742 47.81 48.4953 47.87 48.3153 47.99C48.142 48.1033 48.0553 48.26 48.0553 48.46ZM52.5422 50V43L53.9122 42.77V50H52.5422ZM54.9836 50V43L56.3536 42.77V50H54.9836Z" fill="black"/>
<defs>
<filter id="filter0_d_5_116" x="0" y="0" width="89" height="69" filterUnits="userSpaceOnUse" color-interpolation-filters="sRGB">
<feFlood flood-opacity="0" result="BackgroundImageFix"/>
<feColorMatrix in="SourceAlpha" type="matrix" values="0 0 0 0 0 0 0 0 0 0 0 0 0 0 0 0 0 0 127 0" result="hardAlpha"/>
<feOffset dy="3"/>
<feGaussianBlur stdDeviation="3"/>
<feColorMatrix type="matrix" values="0 0 0 0 0 0 0 0 0 0 0 0 0 0 0 0 0 0 0.161 0"/>
<feBlend mode="normal" in2="BackgroundImageFix" result="effect1_dropShadow_5_116"/>
<feBlend mode="normal" in="SourceGraphic" in2="effect1_dropShadow_5_116" result="shape"/>
</filter>
</defs>
</svg>
