<svg width="287" height="212" viewBox="0 0 287 212" fill="none" xmlns="http://www.w3.org/2000/svg">
<g clip-path="url(#clip0_107_271)">
<path d="M255.306 113.46C254.061 127.893 247.793 141.84 238.851 153.375C238.477 153.857 238.099 154.335 237.716 154.809C236.855 155.874 235.971 156.92 235.066 157.945C233.958 159.208 232.817 160.442 231.644 161.647C230.69 162.639 229.713 163.609 228.714 164.558C227.943 165.299 227.163 166.025 226.374 166.736C216.884 175.343 205.983 182.445 194.751 188.657C172.831 200.775 148.805 209.955 123.815 211.292C98.8277 212.625 72.7423 205.442 54.4175 188.335C29.7206 165.282 22.828 126.831 32.8549 94.5103C39.5239 73.0081 53.1357 53.5562 71.6608 40.8519C90.0257 28.2581 113.194 22.5894 135.12 26.2949C152.624 15.6175 175.538 15.4131 194.567 23.3165C204.721 27.5345 213.834 33.8063 221.828 41.3846C225.489 44.8625 228.914 48.5818 232.082 52.5177C232.405 52.9163 232.726 53.3184 233.043 53.7238C234.371 55.409 235.656 57.1288 236.898 58.8832C238.681 61.3993 240.373 63.9712 241.975 66.599C242.416 67.3226 242.853 68.0496 243.28 68.7833C243.567 69.2758 243.858 69.7717 244.141 70.2709C244.148 70.2811 244.152 70.2925 244.155 70.3044C248.597 78.1474 252.229 86.5165 254.122 95.2641C254.455 96.8119 254.736 98.3665 254.953 99.9344V99.9378C255.143 101.268 255.286 102.605 255.383 103.948C255.611 107.115 255.586 110.296 255.306 113.46V113.46Z" fill="#3F3D56"/>
<path opacity="0.3" d="M190.099 135.279L140.544 93.8431L188.686 136.939C188.779 137.096 188.908 137.229 189.063 137.327C189.217 137.424 189.393 137.483 189.575 137.499C189.757 137.514 189.94 137.486 190.109 137.417C190.278 137.347 190.428 137.238 190.547 137.099C190.665 136.96 190.749 136.794 190.791 136.616C190.833 136.437 190.832 136.251 190.789 136.073C190.745 135.895 190.659 135.731 190.539 135.592C190.419 135.454 190.268 135.347 190.099 135.279V135.279Z" fill="#F0F0F0"/>
<path d="M76.4574 114.193C92.8641 114.193 106.164 100.843 106.164 84.3756C106.164 67.9078 92.8641 54.558 76.4574 54.558C60.0507 54.558 46.7505 67.9078 46.7505 84.3756C46.7505 100.843 60.0507 114.193 76.4574 114.193Z" fill="#F2F2F2"/>
<path d="M102.826 82.3654C102.827 85.9292 102.128 89.4582 100.769 92.7508C99.4104 96.0434 97.4189 99.0351 94.9082 101.555C92.3976 104.075 89.417 106.074 86.1366 107.438C82.8562 108.801 79.3404 109.503 75.7898 109.503C72.6252 109.501 69.4851 108.945 66.5105 107.861C61.8596 106.16 57.7627 103.212 54.6658 99.3359C51.5689 95.46 49.5907 90.8056 48.9465 85.8795C48.3024 80.9534 49.0171 75.9443 51.0127 71.3976C53.0084 66.8509 56.2085 62.9409 60.2647 60.0932C64.3209 57.2455 69.0777 55.5694 74.0172 55.2472C78.9567 54.925 83.8896 55.9692 88.2788 58.2661C92.6681 60.5629 96.3454 64.0244 98.9105 68.2737C101.476 72.5229 102.83 77.397 102.826 82.3654V82.3654Z" fill="white"/>
<path d="M71.1169 81.6954C75.7255 81.6954 79.4615 77.9454 79.4615 73.3196C79.4615 68.6938 75.7255 64.9439 71.1169 64.9439C66.5082 64.9439 62.7722 68.6938 62.7722 73.3196C62.7722 77.9454 66.5082 81.6954 71.1169 81.6954Z" fill="#E4E4E4"/>
<path d="M101.772 74.8373C99.9631 75.7106 97.9016 75.9005 95.9649 75.3721C94.0283 74.8438 92.3462 73.6325 91.2269 71.9605C90.1077 70.2884 89.6263 68.2675 89.871 66.2681C90.1157 64.2687 91.07 62.4248 92.5592 61.0743C96.9844 64.5857 100.205 69.3978 101.772 74.8373Z" fill="#F2F2F2"/>
<path d="M84.802 94.4265C86.4611 94.4265 87.8061 93.0765 87.8061 91.4112C87.8061 89.7459 86.4611 88.3959 84.802 88.3959C83.1429 88.3959 81.7979 89.7459 81.7979 91.4112C81.7979 93.0765 83.1429 94.4265 84.802 94.4265Z" fill="#E4E4E4"/>
<path d="M72.452 108.498C72.4517 108.762 72.4169 109.026 72.3485 109.282C70.3552 109.031 68.3967 108.555 66.5106 107.861C66.6672 107.134 67.0864 106.49 67.6874 106.054C68.2885 105.618 69.0289 105.42 69.7663 105.499C70.5036 105.578 71.1859 105.928 71.6817 106.482C72.1775 107.035 72.4518 107.753 72.452 108.498Z" fill="#F2F2F2"/>
<path d="M54.7613 81.0252C54.7612 82.555 54.1819 84.0275 53.1407 85.1447C52.0996 86.2619 50.6744 86.9402 49.1537 87.0423C48.4654 83.0598 48.6661 78.9737 49.7412 75.0784C51.1437 75.3132 52.4179 76.0395 53.3371 77.1284C54.2563 78.2172 54.7609 79.598 54.7613 81.0252Z" fill="#F2F2F2"/>
<path d="M202.92 71.445C203.603 71.445 204.156 70.8897 204.156 70.2046C204.156 69.5196 203.603 68.9642 202.92 68.9642C202.238 68.9642 201.685 69.5196 201.685 70.2046C201.685 70.8897 202.238 71.445 202.92 71.445Z" fill="#E4A90D"/>
<path d="M191.52 41.2675C191.919 41.2675 192.242 40.9431 192.242 40.5428C192.242 40.1426 191.919 39.8181 191.52 39.8181C191.121 39.8181 190.798 40.1426 190.798 40.5428C190.798 40.9431 191.121 41.2675 191.52 41.2675Z" fill="#F0F0F0"/>
<path d="M75.6965 183.32C76.0952 183.32 76.4185 182.996 76.4185 182.595C76.4185 182.195 76.0952 181.871 75.6965 181.871C75.2977 181.871 74.9745 182.195 74.9745 182.595C74.9745 182.996 75.2977 183.32 75.6965 183.32Z" fill="#F0F0F0"/>
<path d="M195.619 112.175C196.017 112.175 196.341 111.851 196.341 111.45C196.341 111.05 196.017 110.726 195.619 110.726C195.22 110.726 194.897 111.05 194.897 111.45C194.897 111.851 195.22 112.175 195.619 112.175Z" fill="#F0F0F0"/>
<path d="M102.451 119.019C103.133 119.019 103.687 118.464 103.687 117.779C103.687 117.094 103.133 116.538 102.451 116.538C101.768 116.538 101.215 117.094 101.215 117.779C101.215 118.464 101.768 119.019 102.451 119.019Z" fill="#E4A90D"/>
<path d="M57.7234 145.748C60.9463 145.748 63.559 143.126 63.559 139.891C63.559 136.656 60.9463 134.033 57.7234 134.033C54.5005 134.033 51.8878 136.656 51.8878 139.891C51.8878 143.126 54.5005 145.748 57.7234 145.748Z" fill="#E4A90D"/>
<path d="M89.7154 147.137C90.1142 147.137 90.4374 146.813 90.4374 146.412C90.4374 146.012 90.1142 145.688 89.7154 145.688C89.3167 145.688 88.9934 146.012 88.9934 146.412C88.9934 146.813 89.3167 147.137 89.7154 147.137Z" fill="#F0F0F0"/>
<path d="M163.148 33.8969C163.547 33.8969 163.87 33.5725 163.87 33.1722C163.87 32.772 163.547 32.4475 163.148 32.4475C162.75 32.4475 162.426 32.772 162.426 33.1722C162.426 33.5725 162.75 33.8969 163.148 33.8969Z" fill="#F0F0F0"/>
<path d="M120.09 188.346C120.489 188.346 120.812 188.021 120.812 187.621C120.812 187.221 120.489 186.896 120.09 186.896C119.691 186.896 119.368 187.221 119.368 187.621C119.368 188.021 119.691 188.346 120.09 188.346Z" fill="#F0F0F0"/>
<path d="M109.409 40.5976C109.808 40.5976 110.131 40.2731 110.131 39.8729C110.131 39.4726 109.808 39.1482 109.409 39.1482C109.01 39.1482 108.687 39.4726 108.687 39.8729C108.687 40.2731 109.01 40.5976 109.409 40.5976Z" fill="#F0F0F0"/>
<path d="M128.101 75.7757C128.5 75.7757 128.823 75.4512 128.823 75.051C128.823 74.6507 128.5 74.3263 128.101 74.3263C127.702 74.3263 127.379 74.6507 127.379 75.051C127.379 75.4512 127.702 75.7757 128.101 75.7757Z" fill="#F0F0F0"/>
<path d="M99.4884 162.095C99.8872 162.095 100.21 161.77 100.21 161.37C100.21 160.97 99.8872 160.645 99.4884 160.645C99.0897 160.645 98.7664 160.97 98.7664 161.37C98.7664 161.77 99.0897 162.095 99.4884 162.095Z" fill="#F0F0F0"/>
<path d="M183.936 166.785C184.335 166.785 184.658 166.46 184.658 166.06C184.658 165.66 184.335 165.335 183.936 165.335C183.537 165.335 183.214 165.66 183.214 166.06C183.214 166.46 183.537 166.785 183.936 166.785Z" fill="#F0F0F0"/>
<path d="M146.552 124.571C146.951 124.571 147.274 124.247 147.274 123.847C147.274 123.446 146.951 123.122 146.552 123.122C146.153 123.122 145.83 123.446 145.83 123.847C145.83 124.247 146.153 124.571 146.552 124.571Z" fill="#F0F0F0"/>
<path d="M165.578 75.6568C165.977 75.6568 166.3 75.3324 166.3 74.9321C166.3 74.5319 165.977 74.2074 165.578 74.2074C165.179 74.2074 164.856 74.5319 164.856 74.9321C164.856 75.3324 165.179 75.6568 165.578 75.6568Z" fill="#F0F0F0"/>
<path d="M200.168 99.8415C200.959 99.8415 201.6 99.1981 201.6 98.4045C201.6 97.611 200.959 96.9676 200.168 96.9676C199.378 96.9676 198.737 97.611 198.737 98.4045C198.737 99.1981 199.378 99.8415 200.168 99.8415Z" fill="#FF6584"/>
<path d="M142.09 52.2673C142.88 52.2673 143.521 51.624 143.521 50.8304C143.521 50.0368 142.88 49.3935 142.09 49.3935C141.299 49.3935 140.658 50.0368 140.658 50.8304C140.658 51.624 141.299 52.2673 142.09 52.2673Z" fill="#FF6584"/>
<path d="M142.09 151.101C142.88 151.101 143.521 150.458 143.521 149.664C143.521 148.871 142.88 148.227 142.09 148.227C141.299 148.227 140.658 148.871 140.658 149.664C140.658 150.458 141.299 151.101 142.09 151.101Z" fill="#FF6584"/>
<path d="M142.432 150.874C143.222 150.874 143.863 150.23 143.863 149.437C143.863 148.643 143.222 148 142.432 148C141.641 148 141 148.643 141 149.437C141 150.23 141.641 150.874 142.432 150.874Z" fill="#FF6584"/>
<path d="M231.281 157.945C230.723 157.945 230.181 158.128 229.736 158.465C229.291 158.803 228.967 159.276 228.814 159.814C228.746 160.045 228.713 160.284 228.714 160.525V164.558C229.712 163.61 230.689 162.64 231.645 161.647C232.816 160.441 233.957 159.207 235.066 157.945H231.281Z" fill="#E4A90D"/>
<path d="M240.369 178.904C236.059 178.904 231.336 178.741 226.198 178.414C199.624 176.72 165.203 170.831 129.274 161.833C93.3465 152.834 60.2041 141.8 35.9528 130.764C24.1392 125.388 15.0724 120.299 9.00447 115.638C2.58007 110.704 -0.230052 106.403 0.651834 102.856C2.37016 95.9444 17.5851 94.4323 30.0463 94.381L30.0506 95.386C12.938 95.4565 2.84248 98.1958 1.62354 103.099C0.0708188 109.344 12.7341 119.094 36.3663 129.848C60.5643 140.86 93.6458 151.873 129.517 160.858C165.388 169.842 199.746 175.721 226.261 177.411C252.156 179.062 267.899 176.427 269.451 170.181C270.74 164.996 262.242 157.358 245.523 148.673L245.983 147.781C258.132 154.091 272.234 163.142 270.423 170.425C269.541 173.972 265.047 176.444 257.067 177.77C252.517 178.525 246.93 178.904 240.369 178.904Z" fill="#E4A90D"/>
<path d="M239.011 103.975C257.538 103.975 272.557 88.9 272.557 70.3043C272.557 51.7086 257.538 36.6338 239.011 36.6338C220.484 36.6338 205.466 51.7086 205.466 70.3043C205.466 88.9 220.484 103.975 239.011 103.975Z" fill="white"/>
<path d="M239.011 36.1313C232.277 36.1313 225.695 38.1355 220.096 41.8905C214.497 45.6455 210.133 50.9826 207.557 57.2269C204.98 63.4712 204.305 70.3423 205.619 76.9712C206.933 83.6001 210.175 89.6891 214.937 94.4683C219.698 99.2475 225.765 102.502 232.369 103.821C238.973 105.139 245.819 104.463 252.04 101.876C258.261 99.2896 263.578 94.9096 267.319 89.2899C271.061 83.6701 273.057 77.0631 273.057 70.3044C273.073 65.8122 272.204 61.3612 270.498 57.2078C268.793 53.0544 266.286 49.2808 263.121 46.1043C259.957 42.9279 256.197 40.4113 252.059 38.6997C247.921 36.988 243.487 36.1152 239.011 36.1313V36.1313ZM239.011 103.472C232.475 103.472 226.087 101.527 220.652 97.8825C215.218 94.238 210.983 89.0578 208.482 82.9972C205.981 76.9365 205.326 70.2676 206.601 63.8336C207.876 57.3997 211.024 51.4897 215.645 46.8511C220.266 42.2125 226.154 39.0535 232.564 37.7737C238.974 36.4939 245.619 37.1508 251.657 39.6612C257.695 42.1716 262.856 46.4228 266.487 51.8772C270.118 57.3317 272.056 63.7444 272.056 70.3044C272.073 74.6648 271.23 78.9854 269.575 83.0172C267.92 87.049 265.487 90.7121 262.415 93.7954C259.343 96.8787 255.694 99.3212 251.677 100.982C247.66 102.643 243.355 103.489 239.011 103.472V103.472Z" fill="#2F2E41"/>
<path d="M209.573 78.3687C209.419 78.3685 209.27 78.3152 209.151 78.2177C209.032 78.1202 208.951 77.9845 208.92 77.8335C207.96 72.9276 208.133 67.8662 209.426 63.038C210.719 58.2097 213.096 53.743 216.377 49.9807C216.495 49.8487 216.66 49.769 216.836 49.7591C217.013 49.7492 217.186 49.8099 217.318 49.9278C217.45 50.0458 217.53 50.2115 217.54 50.3885C217.55 50.5655 217.491 50.7395 217.373 50.8723C214.23 54.4777 211.951 58.7581 210.713 63.385C209.474 68.0119 209.308 72.8622 210.227 77.5635C210.247 77.661 210.245 77.7617 210.222 77.8583C210.198 77.9548 210.153 78.0449 210.09 78.122C210.028 78.1991 209.949 78.2612 209.859 78.3039C209.77 78.3465 209.672 78.3687 209.573 78.3687H209.573Z" fill="#2F2E41"/>
<path d="M238.99 101.586C250.766 101.586 260.311 92.0047 260.311 80.1854C260.311 68.3661 250.766 58.7847 238.99 58.7847C227.215 58.7847 217.669 68.3661 217.669 80.1854C217.669 92.0047 227.215 101.586 238.99 101.586Z" fill="#E4A90D"/>
<path d="M232.214 88.2649C230.832 88.2264 229.112 88.1782 227.787 87.2066C227.392 86.9055 227.068 86.5213 226.837 86.0811C226.606 85.6409 226.473 85.1553 226.449 84.6584C226.425 84.3052 226.482 83.9512 226.617 83.6242C226.752 83.2971 226.961 83.0058 227.226 82.773C227.919 82.1859 228.929 82.0482 230.018 82.3695L228.89 74.0922L229.718 73.9783L231.045 83.7093L230.353 83.3907C229.551 83.0215 228.45 82.8336 227.766 83.4139C227.598 83.5656 227.467 83.7541 227.384 83.9648C227.3 84.1756 227.266 84.4028 227.284 84.6289C227.305 84.9988 227.404 85.3599 227.576 85.6878C227.748 86.0156 227.988 86.3025 228.28 86.5289C229.311 87.2849 230.682 87.3824 232.237 87.4261L232.214 88.2649Z" fill="#2F2E41"/>
<path d="M224.793 74.8061H220.29V75.6454H224.793V74.8061Z" fill="#2F2E41"/>
<path d="M239.007 74.8061H234.504V75.6454H239.007V74.8061Z" fill="#2F2E41"/>
<path d="M239.886 106.876H220.559C219.839 106.877 219.148 107.164 218.639 107.676C218.129 108.187 217.843 108.88 217.842 109.603V152.598C217.844 155.511 218.64 158.369 220.144 160.861C221.648 163.353 223.802 165.385 226.374 166.736C227.165 166.026 227.945 165.3 228.714 164.558C229.712 163.61 230.689 162.64 231.644 161.647C232.816 160.441 233.956 159.207 235.066 157.945C235.974 156.92 236.857 155.874 237.716 154.809C238.1 154.336 238.478 153.859 238.851 153.375C247.793 141.84 254.062 127.893 255.307 113.46C253.31 111.376 250.915 109.719 248.266 108.588C245.616 107.457 242.765 106.875 239.886 106.876Z" fill="#2F2E41"/>
<path d="M240.59 115.848C240.13 115.396 239.586 115.04 238.988 114.801C238.391 114.561 237.752 114.442 237.109 114.451C235.99 114.46 234.91 114.858 234.051 115.577C233.914 115.688 233.783 115.808 233.661 115.935L217.842 132.218L206.37 144.028C206.196 144.204 206.052 144.408 205.943 144.631C205.771 144.976 205.683 145.357 205.686 145.743C205.689 146.06 205.756 146.374 205.88 146.665C206.005 146.957 206.187 147.221 206.414 147.442L206.864 147.884L210.135 151.083L210.139 151.08C210.578 151.438 211.128 151.631 211.694 151.626C212.01 151.623 212.323 151.556 212.613 151.431C212.904 151.306 213.166 151.124 213.386 150.896L213.917 150.353L217.716 146.443L217.843 146.313L240.677 122.807C241.584 121.872 242.085 120.614 242.069 119.31C242.052 118.005 241.521 116.76 240.59 115.848L240.59 115.848Z" fill="#E4A90D"/>
<path d="M240.43 70.2012C241.135 68.7048 240.412 67.1063 239.173 66.1505C237.613 64.9459 235.594 65.1451 233.819 65.7152C231.876 66.3395 229.976 67.4628 227.877 67.3982C227.128 67.3848 226.401 67.1448 225.791 66.7098C225.181 66.2747 224.716 65.6648 224.457 64.96C223.333 62.0657 224.603 58.8307 226.56 56.6356C227.665 55.3785 229.031 54.3796 230.561 53.709C232.092 53.0384 233.75 52.7124 235.42 52.7539C237.326 52.8488 239.179 53.4156 240.813 54.4036C242.448 55.3917 243.814 56.7704 244.789 58.4168C244.858 58.5292 244.968 58.6106 245.095 58.6441C245.223 58.6777 245.358 58.6608 245.474 58.5971C246.959 57.9305 248.562 57.5661 250.189 57.525C251.815 57.4839 253.434 57.767 254.951 58.3578C257.227 59.289 259.167 60.8931 260.513 62.9571C261.859 65.0211 262.548 67.4473 262.488 69.9136C262.472 70.5606 263.473 70.5602 263.49 69.9136C263.552 66.4658 262.284 63.1271 259.952 60.5956C258.767 59.3333 257.343 58.3221 255.762 57.622C254.182 56.9218 252.478 56.5467 250.75 56.519C248.756 56.4764 246.779 56.8903 244.968 57.7292L245.653 57.9095C244.751 56.3845 243.538 55.0675 242.095 54.0442C240.651 53.0208 239.009 52.3141 237.276 51.9701C235.559 51.6486 233.794 51.7014 232.099 52.125C230.404 52.5486 228.82 53.333 227.455 54.4251C224.884 56.4443 222.936 59.5779 223.057 62.9384C223.109 64.3926 223.54 65.8854 224.546 66.969C225.834 68.357 227.757 68.5971 229.535 68.2415C231.896 67.7688 234.052 66.2097 236.514 66.2577C236.997 66.258 237.474 66.3611 237.913 66.56C238.353 66.759 238.746 67.0494 239.065 67.412C239.607 68.0262 239.934 68.9097 239.565 69.694C239.291 70.2755 240.154 70.7862 240.43 70.2012L240.43 70.2012Z" fill="#2F2E41"/>
<path d="M80.6236 191.108C68.7411 191.108 57.6944 190.699 47.805 189.873C34.8787 188.793 24.6354 187.058 17.3603 184.715C9.65761 182.234 5.57118 179.131 5.21441 175.492C4.51914 168.403 18.3435 161.848 30.0632 157.597L30.4035 158.542C14.3094 164.38 5.71771 170.364 6.21088 175.394C6.83901 181.799 22.0297 186.711 47.888 188.871C74.3656 191.083 109.21 190.299 146.003 186.663C182.797 183.029 217.125 176.979 242.665 169.629C267.607 162.45 281.553 154.66 280.924 148.254C280.403 142.936 269.842 138.608 251.187 136.066L251.322 135.07C264.877 136.917 281.188 140.686 281.921 148.156C282.278 151.794 278.872 155.637 271.8 159.578C265.119 163.3 255.41 167.007 242.941 170.595C217.345 177.961 182.953 184.023 146.102 187.664C122.984 189.948 100.625 191.108 80.6236 191.108Z" fill="#E4A90D"/>
<path d="M280.359 151.779C283.582 151.779 286.194 149.156 286.194 145.921C286.194 142.686 283.582 140.064 280.359 140.064C277.136 140.064 274.523 142.686 274.523 145.921C274.523 149.156 277.136 151.779 280.359 151.779Z" fill="#E4A90D"/>
<path d="M111.129 12.0713C114.352 12.0713 116.965 9.44886 116.965 6.21394C116.965 2.97902 114.352 0.356598 111.129 0.356598C107.906 0.356598 105.294 2.97902 105.294 6.21394C105.294 9.44886 107.906 12.0713 111.129 12.0713Z" fill="#E6E6E6"/>
<path d="M6.98806 151.444C10.211 151.444 12.8237 148.821 12.8237 145.586C12.8237 142.351 10.211 139.729 6.98806 139.729C3.76515 139.729 1.15247 142.351 1.15247 145.586C1.15247 148.821 3.76515 151.444 6.98806 151.444Z" fill="#E6E6E6"/>
<path d="M43.0369 40.2872C45.0098 40.2872 46.6092 38.6819 46.6092 36.7016C46.6092 34.7214 45.0098 33.116 43.0369 33.116C41.064 33.116 39.4646 34.7214 39.4646 36.7016C39.4646 38.6819 41.064 40.2872 43.0369 40.2872Z" fill="#FF6584"/>
<path d="M26.3476 176.309C28.3205 176.309 29.9199 174.704 29.9199 172.724C29.9199 170.743 28.3205 169.138 26.3476 169.138C24.3747 169.138 22.7753 170.743 22.7753 172.724C22.7753 174.704 24.3747 176.309 26.3476 176.309Z" fill="#FF6584"/>
<path d="M270.011 117.679C271.984 117.679 273.584 116.074 273.584 114.094C273.584 112.113 271.984 110.508 270.011 110.508C268.038 110.508 266.439 112.113 266.439 114.094C266.439 116.074 268.038 117.679 270.011 117.679Z" fill="#FF6584"/>
<path d="M215.938 206.724C219.161 206.724 221.774 204.101 221.774 200.866C221.774 197.631 219.161 195.009 215.938 195.009C212.715 195.009 210.102 197.631 210.102 200.866C210.102 204.101 212.715 206.724 215.938 206.724Z" fill="#E6E6E6"/>
</g>
<defs>
<clipPath id="clip0_107_271">
<rect width="285.701" height="211.091" fill="white" transform="translate(0.493652 0.356567)"/>
</clipPath>
</defs>
</svg>
